<svg xmlns="http://www.w3.org/2000/svg" viewBox="0 0 500 500"><defs><style>.cls-1{opacity:0.61;}.cls-2{fill:#e08e36;}</style></defs><title>Box-2</title><g id="Livello_4" data-name="Livello 4"><g class="cls-1"><path class="cls-2" d="M334.63,461.83c-1.92,2.93,1.27,4.27,8.28-1.36l2.35-7.73Z"/><path class="cls-2" d="M389.3,434.64c7.25-8,14.77-18.49,6.56-18.29-5.8,9.91-9,9.74-15,20.85-7,5.64-13.73,7.71-13.54,5.35-1.87,2.86-12,7.12-14.2,12.45,11.76-3.57,24-12,34.78-23.44C391.28,430.55,389.4,433.46,389.3,434.64Z"/><path class="cls-2" d="M328.77,349.58l-5.26,2.15A35.49,35.49,0,0,0,328.77,349.58Z"/><path class="cls-2" d="M336.51,296.84c3.95-1.37,5.49-2.32,5.55-2.83C338.44,295.45,335.5,296.71,336.51,296.84Z"/><path class="cls-2" d="M246.41,323.89c1.93-.63,3.52-1.24,5.26-1.83A13,13,0,0,0,246.41,323.89Z"/><path class="cls-2" d="M328.77,349.58l13.53-5.5C342.42,342.17,335.17,346.54,328.77,349.58Z"/><path class="cls-2" d="M344,442.37a43.87,43.87,0,0,0,7.26-3.13c-2.35.79-4.63,1.54-7,2.26A4.29,4.29,0,0,1,344,442.37Z"/><path class="cls-2" d="M317.81,365.59c1.32-.57,2.63-1.17,3.94-1.77a22.25,22.25,0,0,0,2.42-3.33C322.05,362.19,320,363.94,317.81,365.59Z"/><path class="cls-2" d="M325,392.66c3.64-2,2.67-6.37,3.07-8.77-1.1,2.71-3.29,5-6.23,7.2C322.21,391.81,323.17,392.34,325,392.66Z"/><polygon class="cls-2" points="309.4 441.45 306.95 443.61 302.97 435.26 304.77 434.53 302.97 435.26 306.95 443.61 309.4 441.45"/><path class="cls-2" d="M236,405a3.64,3.64,0,0,0,2.19.54C237.93,405.11,237.11,405,236,405Z"/><path class="cls-2" d="M240,49.65c0,.33.31.38.41.63C241.1,49.34,241.22,48.91,240,49.65Z"/><path class="cls-2" d="M166.26,129.07l-.09-1.56c0-.52,0-1,.05-1.56a7.59,7.59,0,0,0-2.18-1.22,23,23,0,0,0,1,2.26C165.4,127.71,165.84,128.41,166.26,129.07Z"/><path class="cls-2" d="M357.1,316c-.32.06-.43.1-.73.17C352.32,318.12,354.67,317.2,357.1,316Z"/><path class="cls-2" d="M289.22,259.74a9.76,9.76,0,0,1,3.56-.23c.54.18.5.61.08,1.2-.85,1.19-3.23,3-5.45,4.5-1.11.78-2.18,1.52-3,2.13s-1.34,1.19-1.36,1.58.46.68,1.7.7a25.86,25.86,0,0,0,6.29-.85c-.69-.17.1-1.14,1.3-2.48a51.45,51.45,0,0,0,3.86-4.55c1.06-1.53,1.57-2.81.68-3.28S293.7,258.4,289.22,259.74Z"/><path class="cls-2" d="M339.31,443c-2.37.65-4.77,1.31-7.21,1.9A63.31,63.31,0,0,0,339.31,443Z"/><path class="cls-2" d="M291.05,268.77v0c.83-.2,1.66-.4,2.49-.64C292.52,268.45,291.93,268.56,291.05,268.77Z"/><path class="cls-2" d="M377.6,254.85a8.86,8.86,0,0,0-3.07-.39A11.39,11.39,0,0,0,377.6,254.85Z"/><path class="cls-2" d="M377.09,275.17c-1.12.22-2.18.42-3.2.58A10.65,10.65,0,0,0,377.09,275.17Z"/><path class="cls-2" d="M241.83,282.63c-3.66,1.53-5.12,1.63-9.64,4.61a9.51,9.51,0,0,0,1.69-.29C235.35,285.54,237.53,284.1,241.83,282.63Z"/><path class="cls-2" d="M211.46,320c-.86.08-1.92.36-2.88.54-1.31.77-2.84,1.64-4.16,2.45C206.73,321.93,209.12,321,211.46,320Z"/><path class="cls-2" d="M162.84,118a23.25,23.25,0,0,1,8.36-.16c-1.77-.76,2.34-4.07,3.81-5.53.74-.73.81-1-.83-.26-.83.38-2.08,1-3.9,2S166.05,116.23,162.84,118Z"/><path class="cls-2" d="M343.37,440.09c-.63,1.25-1.8,2.09-4.06,2.89,1.73-.48,3.37-1,5-1.48C344.57,440.78,344.53,440.18,343.37,440.09Z"/><path class="cls-2" d="M251.45,315.11c-3.71,1.79-7.41,3.63-11.12,5.47l-11.1,5.54c3.15-1.46,6.75-3.19,10.54-5.07S247.53,317.13,251.45,315.11Z"/><path class="cls-2" d="M147.23,254.82c1.43-1.2,2.81-2.45,4.21-3.68A17.5,17.5,0,0,0,147.23,254.82Z"/><path class="cls-2" d="M148.61,321.71c2.44-1.14,4.82-2.43,7.19-3.73s4.71-2.7,7.08-4a13.81,13.81,0,0,0,2-2.79A177,177,0,0,0,148.61,321.71Z"/><path class="cls-2" d="M171.27,117.86a.07.07,0,0,1-.07,0A.07.07,0,0,0,171.27,117.86Z"/><path class="cls-2" d="M293.82,96.46c10.63-5.69,12.46-8.25,12-10s-3.17-2.76-1.7-5.39c2.54-1.58,4.69-2.86,6.12-3.67L295.92,50.86c-16.26,8.75-8.44-.8-17.3,1-15,9.59-24.73,20.44-36.55,26.43-1.3-.34-3.74.56-1.6-1.86-14.57,12.66-49.24,26.21-66,41.31a6.76,6.76,0,0,1-3.17.12c4.43.8,6.23,3,6.52,5.16a120.77,120.77,0,0,0-12.2,8c-3.49,2.41-6.39,4.12-9.15,3.73a21.15,21.15,0,0,0,5.32-4.13c1-1.12,1.45-2.15,2.57-3.41-3.13,2.33-6.26,4.76-9.3,7.37-3,.4-3.7,0-3.08-1a8.86,8.86,0,0,1,1.78-1.81c.84-.67,1.89-1.45,3-2.21,4.54-3.1,10.26-6.27,9.34-8a144.59,144.59,0,0,0-17.4,12.85,75.6,75.6,0,0,0-15.18,17.71l-11.43,19.17,20.13-5.14c4.47-1.14,8.79-2.08,12.84-3a115.25,115.25,0,0,1,11.34-2.06c.57.51.4,1.08-.3,1.65a13.6,13.6,0,0,1-3.5,1.68c-1.55.55-3.41,1.1-5.35,1.63-1,.25-2,.53-2.94.76l-2.91.62c-7.51,1.62-12.73,2.77-.88,3.1l-7.54.7-33.69,3.12,20-25.24A69.53,69.53,0,0,1,146.46,134c-5.78,1.83-7.86,2.58-7.91,2,0-.27.44-.84,1.17-1.51s1.72-1.44,2.72-2.19c2-1.51,4-2.92,4.19-3.67.07-.37-.33-.58-1.46-.52a25.69,25.69,0,0,0-5.95,1.33,66.74,66.74,0,0,0-15.67,15.9L96.13,186.73l47.86-8.5c2.72-.48,5.23-1,7.59-1.44s4.59-.93,6.7-1.51l6.16-1.64c2-.54,4-1,6.06-1.69s4.12-1.22,6.33-1.84l3.4-.93,3.59-1.06c2.49-.72,5.15-1.46,8.07-2.22s6-1.75,9.49-2.69c3.42-2.57,2.42-3.39,1.47-4.15s-1.9-1.53,1.39-4.22c2.85-1.35,5.5-2.54,8-3.58s4.72-2.09,6.85-2.93,4.11-1.54,5.93-2.22,3.54-1.23,5.14-1.7a84.94,84.94,0,0,1,15.57-3,61.62,61.62,0,0,0,6.44-.93,41,41,0,0,0,6.76-1.9,43.91,43.91,0,0,0,7.82-4.14,55.2,55.2,0,0,0,4.56-3.23c1.58-1.28,3.25-2.71,5-4.32,3.26-4,4.63-8,8.21-12.37a49.86,49.86,0,0,1,7.3-7.23,133.4,133.4,0,0,1,13.11-9.16c-1.1,3.37-2.26,6.75-3.46,10.17a87.78,87.78,0,0,0,9.66-8.33,56.11,56.11,0,0,0,5.26-6.08l62.42-85-79.92,57.4c-4.07,2.93-5.85,5.17-9.54,7.7a46.23,46.23,0,0,1-7.52,4.11c-3.31,1.58-7.7,3.24-13.53,5.44,2.29-2.45,8.12-5.75,12.75-8.25s8.13-4.06,5.64-3.32c-2.87.68-5.25,1.32-7.22,2a36.21,36.21,0,0,0-4.82,2,16.49,16.49,0,0,0-5.25,4c-2.44,2.78-4,5.68-11.82,9.77L252,87c-7.88,4.44-15.76,9.28-23.62,14.4s-15.69,10.53-23.52,16.08-15.69,11.21-23.56,16.87l-11.87,8.46-6,4.22c-2.09,1.46-4.21,3-6.34,4.57a18,18,0,0,1,1.25-2.29,9.44,9.44,0,0,0,1.07-2.15c.14-.56,0-.92-.81-.86a13.59,13.59,0,0,0-4.49,1.68c-2.6,2.09-5.24,4.21-7.92,6.72-.67.59-1.34,1.26-2,1.92s-1.34,1.29-2,2-1.34,1.42-2,2.17L139,162.1c-.44.52-.91,1.07-1.29,1.57a48.65,48.65,0,0,0-7.4,13.15c-.39,1.2-.84,2.38-1.11,3.61s-.57,2.46-.75,3.71l-.36,3.77c0,1.26,0,2.53,0,3.8a36.9,36.9,0,0,0,9.06,21.79,46.37,46.37,0,0,0,9.15,8.17c.85.59,1.72,1.16,2.61,1.69s1.82,1.08,2.66,1.52c1.54.83,3.1,1.57,4.67,2.25a64.32,64.32,0,0,0,19.59,5c1.69.16,3.41.25,5.14.26.87,0,1.74,0,2.62,0l1.31-.06,1.2-.09c1.59-.13,3.2-.24,4.76-.48l2.36-.33c.78-.13,1.55-.29,2.32-.43a97.33,97.33,0,0,0,17.43-5.13,152.81,152.81,0,0,0,15.13-7.09c4.69-2.5,9.07-5.06,13.21-7.5l12-7.15c4.19-4.69,8.37-9.37,12.49-14.1,3.5-2.41,7.59-3,4.33.42,16.17-9.53-.83-2.83,5.45-9.47,8.4-6.46,12.83-6.21,8.17-1.16,11-10.05,26.2-23.7,42.11-37.59L309.33,119c-20.94,14.92-43.43,29.5-60.76,37.51l4.92-4.71C230,164.7,233,175.66,209.9,185.56l3.58-3.22c-11.79,7-23.69,14.5-35.51,22.06-5.92,3.79-12.06,7.74-18.14,12.26a109.52,109.52,0,0,0-17.44,15.82l-40.54,46.69,55.93-26.31c14.44-6.78,27.93-14.23,40.43-21.38s24-14,34.67-19.71c1.58-5,13.33-13,24.28-21.24s21.23-16.34,20.54-21l-16.31-16a.63.63,0,0,0,.05.59c-2.95,2.84-5.45,5.18-7.63,7.18s-4.13,3.58-5.84,5-3.21,2.65-4.69,3.79-2.86,2.24-4.31,3.42-3,2.42-4.7,3.86-3.63,3.11-5.88,5.09-4.88,4.27-8,7l-5.05,4.42-2.82,2.49L209.47,199c-4.4,4.07-6.72,8.1-9.21,12.55A79.52,79.52,0,0,1,196,218.5c-.83,1.2-1.75,2.44-2.79,3.71s-2.25,2.53-3.59,3.85l-3.3-3.26c-2,2.82-4.05,5.64-6.16,8.4s-4.17,5.59-6.35,8.31c-4,.8-7.91,1.63-11.91,2.32l-5.19,4.7-5.29,4.61c4.69-3,10.75-5.42,10.89-3.85-8.89,8.24-21.81,16-31.88,20.7l18.6,25.47c2-1.16,3.85-2.19,5.55-3.07s3.26-1.58,4.58-2.14c2.63-1.12,4.4-1.55,4.81-1.19,12.85-11.14,26.75-21.69,41-32.18,0,2.2-7.17,7.44-12.31,12.21,10.47-9.55,12.3-9.18,13.79-8.64s2.74,1.3,12.64-7.4c-3.52.95.15-3.34.16-4.44,6.25-2.26,15.72-7.28,25.92-13.55a303.13,303.13,0,0,0,30-21l-1.71,5.15a292.89,292.89,0,0,0,31.72-24.75c5.24-4.65,10.32-9.73,15.33-15s9.79-11,14.42-16.93L413.86,59.35l-106,71.07-41.73,28c14.21-7.65,14.16-1,3.55,6.69L262.63,164c-5.34,7.22,12.4-6.08,0,6.65-14.13,8.86-12.42,1.69-5.35-5l-15.85,12.82c-1.81-.53,1.68-3.85,1.66-6.09-2.59,3.6-10.51,7.56-18.65,12.07S208,194,204.65,199.63l-1.78-.51c-6,4.25-11.37,8.19-16.35,11.9l-7.18,5.4-6.75,5.17A126.86,126.86,0,0,0,158.43,234a66.41,66.41,0,0,0-7.06,8.67,51.1,51.1,0,0,0-5.89,11.53l-22.39,63.05L176.92,279c7.63-5.42,16.1-11.34,26.46-17.81-1.64-4,10.63-10.43,18.12-18.64,23.33-12,50.5-22.43,78.9-35.71,9.62-5.49,10.77-6.91,10.48-7.81s-2-1.25,2.08-4.38c.75.72,3.12.46,6-.19s6.37-1.62,9.29-2.43,5.32-1.43,6.11-1.29-.06,1-3.55,3.16c5.49-2.35,10.39-4.36,14.68-6.15s8-3.26,11.2-4.57l-15.25-31.56c-8.68,5.52-16.26,10.51-25.06,16.6s-18.84,13.31-32.22,23.62c5.32-1.7,10.7-4.43,8.83-1.62-7.08,5.43-17.72,10.07-17.73,7.84l1.73-1.67c-7.22,6.18-15.13,12.23-23.38,18.32L241,223.85c-4.26,3.06-8.59,6.22-12.95,9.49a204.21,204.21,0,0,0-25.55,22.16,99.08,99.08,0,0,0-20,29.9l-16.66,40,42.3-15.57a140.5,140.5,0,0,0,13.79-5.94c4.3-2.16,8.31-4.45,12-6.79a119.75,119.75,0,0,0,18.68-14.48l-1.82,1.68c5.93-4.76,11.62-9.36,17.32-13.68a188.79,188.79,0,0,1,17.28-11.76c4.36-1.8,6-2.09,6.13-1.82s-1.1,1.25-2.46,2.36-2.8,2.32-3.07,3.09.64.92,3.93.11a78.32,78.32,0,0,1,9.53-5.19c1.56-.75,3.11-1.32,4.65-1.93s3.06-1.07,4.56-1.48a55,55,0,0,1,17-2.09l-11.34-27.81c-14.91,15.57-28.88,28-42.68,44.62l-39.52,47.61,56.26-20a89.21,89.21,0,0,0,10.32-4.42,56,56,0,0,0,15.55-3.8,113.56,113.56,0,0,0,16.89-8.37c5.67-3.35,11.13-7,16.83-10.81s11.53-7.94,17.42-12.11c11.78-8.32,23.77-16.94,35.23-24.56s22.69-14.41,32.76-19.73l-3.67-.61c3.83-4.46,6.8-6.34,9.76-7.71s5.89-2.27,9.44-5c-1.16-.31-4,1.34-6,2.34s-3.07,1.29-.73-1.61q5.13-4.62,10.17-9.73c3.34-3.46,6.64-7.1,9.86-11l7.58-9.22-5.49-9.85a23.59,23.59,0,0,0-2.8-4.1,21,21,0,0,0-3.67-3.36,22.32,22.32,0,0,0-7.52-3.55c-.57-.15-1.06-.24-1.59-.35s-1.08-.2-1.55-.25c-.89-.1-1.89-.19-2.7-.21a31.26,31.26,0,0,0-4.51.23,37.49,37.49,0,0,0-7.11,1.61c-1.08.36-2.12.75-3.18,1.19l-.79.34-.37.17-.23.11-.92.44-14.8,7.07c-4.9,2.42-9.74,5-14.65,7.43l-3.67,1.87-3.61,2-7.24,3.91c-19.28,10.5-38.21,21.74-56.82,33.25s-36.92,23.3-55,34.84-36,22.83-53.82,33.47A71.78,71.78,0,0,0,205,285.69a39.54,39.54,0,0,0-5.9,7.47c-.76,1.17-1.49,2.33-2.33,3.49a29,29,0,0,1-3.05,3.44,46.2,46.2,0,0,1-11.37,7.58l18,24.39c1.37-1.14,2.9-2.4,4.72-3.69s3.88-2.62,6.29-3.93l-1.36,2.68-1.24,2.71c-.4.9-.82,1.78-1.2,2.68l-1.08,2.71c8.87-10.22,20.36-19,33.18-26.3s27-13.44,41.51-19c29.16-11.13,60.34-20.31,89.68-34.91l-14.45-33.07c-5.53,2.77-10.95,5.57-16.31,8.43,3.25-2.69,2.77-4.1,8.84-6.77-14.55,2.52-48.62,21.38-47.65,24.17-9.81,4-3.31-1.44-9.88-.16-14,3.9-31.18,18.86-39.64,18.7-1.42,0,3.23-2.71,5.52-4-3.93,2.7-14,7-21.79,10.72S222,279.76,227,279.78a218.37,218.37,0,0,0-33.88,16.11c-10.57,6.06-20.42,12.35-30.22,18.05-3.33,4.54-9.43,9.51-15.52,15.2L58.42,412.33l108.5-56.75c11.2-5.86,23.31-11.1,23.64-16,.84,3.42,11.24-.75,23-7,5.88-3.14,12.12-6.75,17.67-10.25a150.28,150.28,0,0,0,13.61-9.38c-3.79,4.27,13.28-4.51,9,.89,16.07-8.46,30.4-16.87,26-18.61,16.79-3.76,31.17-12.32,44.25-19.63,6.56-3.58,12.72-7,18.64-9.18a47.67,47.67,0,0,1,8.6-2.48,27.8,27.8,0,0,1,8.17-.22c6.78-3.33,13.6-6.32,19.32-9l-15.65-33.95c-24.93,17.85-47.77,33.69-69.44,48.35s-42.15,28.1-62.21,41c-6,1.76,8.07-7.38,21.59-16.16,6.76-4.4,13.38-8.71,17.55-11.83s6-5.09,2.87-4.63c-11.47,8.08-21.14,15-29.81,21.28l-12.37,8.86-5.84,4.15-2.87,2c-.37.4-.64.76-1,1.15-.05,1.22-.4,2.61-.42,4.81,0,.55,0,1.14.08,1.81a8.88,8.88,0,0,0,.37,2.18,23.25,23.25,0,0,0,6,4.18,26.71,26.71,0,0,0,5.5,1.84c.88.19,1.73.34,2.6.46l2.69.32,2.7.36,1.35.19,1.44.15c1.93.19,3.81.45,5.77.7,3.71.61.92,1.45-3.19,2s-8.86.52-11,.74l6.12.69c.53,0,1,.13,1.56.15l1.68.08,3.34.17,1.65.09.82.05h.93l3.73-.07,3.69-.05a16,16,0,0,0,2.05-.15l2.16-.22,4.28-.42,2.12-.21c.33,0,.75-.1,1.16-.17l1.22-.21,9.69-1.66,10.12-2,2.52-.5,2.67-.61,5.32-1.23a445.35,445.35,0,0,0,46.08-13.33c4-1.3,8.15-2.91,12.2-4.39l6.07-2.27c2-.76,4.05-1.61,6.06-2.4,4-1.63,8-3.23,11.89-4.89l5.8-2.5L392,298l.52-.24.44-.22,1.77-.85c0,.32-.85,1-2.4,1.94-2.42,1.27-5.69,2.84-9,4.33,1.59-.62,3.24-1.25,4.91-1.88l4.83-1.8c2-.74,4-1.46,5.68-2.17,3.35-1.41,5.49-2.74,4.51-4l-7.15,3.66c-9,.34,5.17-8.37,16.08-15.27l-4.56-12.23c-6.16,3.58-11.32,6.62-11.53,7.57,10.09-12.95-39.26,11.61-22.27-6.25-4.87,2.34-10.72,6-8.87,7.5-7.71,2.1-10.5,1.82-3.67-3.1-27,11.38-16.06,10.95-41.08,19.81-.42-1.44,4.44-3.79,6.44-6.36-5.84,3.63-11.71,7.26-18.81,10.86A193.27,193.27,0,0,1,281.71,310c.93-1.34-2-1.46,4.37-3.92a258.63,258.63,0,0,0-34.94,17.46c-10.72,6.33-20.92,13-31.92,20.28l7.31,13.81A224.66,224.66,0,0,1,256.36,345c-4.43,5.36-.94,4.48,4.15,2.8s11.86-4,13.92-1.82c6.7-3.28,13.45-6.44,20.23-9.58l-9.36.62c9.19-3.44,17.53-7.54,25.68-11.23s16.13-6.92,24.46-8.65c-4.4,2.24-8.79,4.47-13.14,6.76q17.25-6.37,34.75-12.12c-6.86,1.29-13.71,2.68-20.56,4.11,9.06-4.38,8.05-5.89,7.93-7.13-.06-.62.11-1.16,1.9-1.94s5.2-1.8,11.63-3.28c-1.44.6-.45.38,2-.22l-2.61-6c-5.31,2.86-18.32,10-25.86,11.63,0,0,.06,0,.05-.05-7.59,6.44-15.44,13.08-28.93,19-4.19.28-.33-6.9-3.07-6.74-3.07,4.4-13.06,10.27-23.36,16.25s-20.93,12-25.2,17.06c3.07-2.94,1.9-5.63.43-5.55L245.93,356c-8.7,3.14-10.16,3.22-9.91.46-12.42,5.95-9.67,6.54-7.62,7.16s3.4,1.29-11.92,7.27c2.16-1.42.81-1.37,5.33-4.3-8.51,3.8-16.7,7.83-24.62,11.93l-15.28,7.9,15.59,6.44a23.86,23.86,0,0,0,6.24,1.62,26.82,26.82,0,0,0,5.87,0,42.66,42.66,0,0,0,9.9-2.33c1.48-.51,2.9-1.06,4.26-1.62l3.92-1.63,7.73-3.2c5.14-2.12,10.24-4.22,15.37-6.19s10.26-3.87,15.43-5.64c5.21.89-.79,3.79-6.76,6.39s-11.81,5.07-6.14,5.39c20.32-8.57,40.71-18.95,60.76-29.43s39.76-21.12,59.05-30.06l-7.37,3c.43-2.44,2.52-4.32,5.69-6a84.78,84.78,0,0,1,12.12-4.7c4.73-1.58,9.93-3.32,15.05-5.47a63,63,0,0,0,14.37-8.2c-4.32,3-4,7.16-3.14,5.72,4.49-2.17,8.92-4.52,13.66-7.12l-10.7-19.62c-21.45,11.63-44,26.69-75.09,45.74l3.82-4.38c-15.89,6.47-40.08,20.35-56.76,28.25-3.85,4.39-13.29,9.09-6.24,8.67-25.9,7.76-47.76,20.63-68.64,33.69l-23.07,14.43,26,1.66a100.86,100.86,0,0,0,22.78-1.2A201.15,201.15,0,0,0,256.81,406c6.85-1.85,13.51-3.85,20.19-5.6s13.36-3.28,20.22-4.5c-5.72,2.19-13.15,6.68-8.54,5q20.31-8.26,39.89-18.05a9.15,9.15,0,0,0-5.93-.32,66.63,66.63,0,0,1-9.6,1.8c4.3-3.95,14.78-10.28,24.37-14.91-4.11,2.61-6,4.2-6.46,5.11s.68,1.17,2.57,1c3.76-.28,10.68-2.14,14.89-3.2-1.74-.32.33-2.66-.8-3.3,11.51-2.39,11.55-4.47,12.34-7.15s2.4-6,16.71-11.89l-.48,2.4c8.43-5.9,15.44-12.59,24.34-18.62l-1.08-1.68c-1.06.66-2.24,1.36-3.46,2-3.15-.36-1-2.26,1.95-4.51l4.2,6.56c-3,2.43-6.85,5.29-6.29,6.93a83.19,83.19,0,0,0,7.23-5.53l-6-9.39c-11.19,8.93-20.63,19.95-33.44,23.92,5.71-4.8,14.74-10.36,20.45-15.16-17.05,4.93-18.12,7-29.35,13l1.12-.57-26.19,13.54,7.06-2.82C323.63,380.38,300,384.86,278.57,406c20.88-20.39,2.06-5.66,1.54-10.67-7,2.83-17.46,7.56-15.37,4.78l-1,1-13.2,13.46L261.93,422c.69.46,1.38.89,2.06,1.31l1,.62,1,.52,2.08,1c.69.27,1.37.51,2.05.75a35.79,35.79,0,0,0,4,1.1q1.91.38,3.72.6a50.27,50.27,0,0,0,13-.31A44.41,44.41,0,0,0,302.76,424c1-.44,2-1,2.9-1.48s1.73-1,2.62-1.59a64.33,64.33,0,0,0,5.51-4c1.39,1,13.63-5.79,12.23-1.17,16-8.25-4.91-.64-4.26-2.92,18-12,44.94-17.66,71.85-29.69L380,373.76a.84.84,0,0,1,.18,0h0l-.18,0a3.44,3.44,0,0,1-.5-.09c-.08,0-.5-.1-.74-.19s-.44-.18-.9-.32l-.52-.22h0s0,.07,0,.1a8.59,8.59,0,0,1-1.75,2.6,52.71,52.71,0,0,1-3.9,3.94c-1.65,1.52-3.41,3.15-5.06,4.8-26.54,22.06-28.91,29.75-53.63,50.09-10.17,4.27,4.16-9.43,4.16-9.43a189.09,189.09,0,0,0-16.44,9.77l-29.94,20,35.12-9.16a268.23,268.23,0,0,0,26.31-8.55c-2.88,2.08.69,2.24,5.89,2.62,12.55-3.52,7.19-7.34,24.49-9.17-2.52,2.26-5.62,5.65-11.34,8.7,14.58-4.89,28.81-10.83,44.21-15.23,4.63,1.68-8.67,5.65-13.79,8.47,12.4-3.51,30.28-7.76,41.08-11.55l-6-14.45c-3.22,3.17-5.44,5.83-6.06,7.64l8.33-4.43,3,7.36-2.21.11a10.64,10.64,0,0,1,2.18-.25l-2.93-7.09c-2.08.94-2.46-.42-1.61-2.3l5,12.15a10,10,0,0,1-3.37,1.89c-14.51,5.79-22,2.69-23.14,1.41l11-3.08c-6.52-3.14-17.76-.63-30,3.39s-25.59,9.56-36.73,12.11l7.79-8.34q-10.86,5.29-21.56,10.79c-5.23-.28-9.48-2.78,1.28-6.58-7.49.54-11,1.8-13.89,3.06a30.5,30.5,0,0,1-10.29,3.12l2.06,4.32c1-.44,2.18-1,3.61-1.54,1.59-.46,1.18.19.14,1.23l12.12-10.77c-1.84,2.89,4.72,2.07-3.9,7,25.73-13.64,35.46-30.59,47.09-33l-1.76,1.7c15.81-12.38,15.94-13.87,14.82-15-.56-.55-1.44-1-.83-2.69a16.67,16.67,0,0,1,2.16-3.59,47.75,47.75,0,0,0,4.32-6.64,12.39,12.39,0,0,0,4.08-2.1,8.75,8.75,0,0,0,2.88-4.4l.26-.91-2.38-.24-12.7-1.25-1.78,5.78c-3.86,1.5-11.5,4.46-10.84,2.17-12.86,9,3.2.78-3.8,7.06-19.92,4.14-49.54,23.74-56.57,18.84-5.16,6,18.53-5.15,0,5.57-3.74-2-7.91-.3-13.14,1.65a36.51,36.51,0,0,1-8.63,2.31,14.9,14.9,0,0,1-4.66-.27,10.2,10.2,0,0,1-4.12-2.15l-.31,3.49a48.41,48.41,0,0,1,7.8-3.76c-1,2.38-3.83,4.88-6,6.69l.79-9a6.86,6.86,0,0,0,1.44.55c.38.1.66.14.8,0,.31-.18-.27-.71-.89-2.1l-1.08,12.26a39.79,39.79,0,0,0,3.89-1.31c5.78-11.57,31-17.22,43.37-26.35-2.23-5,27.26-19.36,48.27-34.35-.27,1.49,16.18-7.56,33.85-17.25l-8.25-12.88C385.22,332.92,374,339,365.85,342.79l.14-1.14c-.59,3.51-6.33,8.08-13.92,12.76S335,363.76,327.15,368c-.75-3.29,1.63-5.76,9.56-11.27q-7.43,3.66-15,7.09a27.14,27.14,0,0,1-5.88,4.89,97.06,97.06,0,0,1-11.06,6l2.28-5.41c-10.1,4.34-20,9.44-31,14.11a152.77,152.77,0,0,1-17.28,6.35,83.48,83.48,0,0,1-19.2,3.42c-.23,1,1.07,2,2.78,2.92a42.88,42.88,0,0,1,5.12,2.88c1.28,1,1.72,2.18-.07,3.62a16.13,16.13,0,0,1-4.54,2.31,51.43,51.43,0,0,1-9.06,2.31,4.14,4.14,0,0,1-.88-3.64,3.93,3.93,0,0,1,1.69-1.87,15.85,15.85,0,0,1,4.2-1.58c-1.25.33-3.47,1-6.06,1.53a23.24,23.24,0,0,1-8.14.3,97.66,97.66,0,0,0,11.55-4.16c-6.3-.09-7.83.54-9.15,1.49a7.53,7.53,0,0,1-2.29,1.29,12.55,12.55,0,0,1-5.13.31c.14-1.08-.79-1.67-1.87-2.19a24.09,24.09,0,0,1-3-1.37l2.08,11.35c1-.17,1.44,0,1.37.81-.16.11-.35.22-.71.42l-2.56-14c1.27.09,3.18.67,5.27.92a17.62,17.62,0,0,0,3.15.21,9.07,9.07,0,0,0,2.88-.42,56.14,56.14,0,0,1-11.19-1.53l2.85,15.52c7.52-3.08,14.61-5.45,18.09-5.63-1.71-1-1.89-3.51,5.6-8,19.72-10.85,8.47-.51,20.75-5.38,3.83-4.39,17.48-9.31,15.72-13.39,5.81-3.1,7.86-1.86,10.67-2,9.33-7.24,47.66-26.25,33.86-24.18l-2.77,1.14c.44-.35,1-.66,1.58-1.08l-.08.05.08-.05c30.36-21.12,68.1-34.31,99.81-52.73l-6.28-11.52-3.67,2.21-.66-1.33c-9.43,6.18-20.4,12.24-30.59,18S360.3,318,353.76,323a35,35,0,0,1-9.69,3c-2.87.36-4.75,0-3.84-1.38-3.76,2.09-6.65,3.81-9.23,5.34s-4.88,2.82-7.43,4.14a97.22,97.22,0,0,1-9,4.11c-3.66,1.47-8.16,3.13-14.09,5.06,7.38-4.67,5.77-4.59,5.06-4.49s-.54.22,10.31-4.48c-10.41,4-17,5.94-23.58,8.55A99.16,99.16,0,0,0,282,347.49c-3.72,1.95-7.92,4.35-13.05,7.61,6.06-6.6-17.31,2-26.76,6.85l15.51-3.26A320.85,320.85,0,0,1,227,370.6l3.56-6.69c-3.15.76-6.23,1.56-9.24,2.46-1.5.45-3,.91-4.45,1.4s-2.67.87-3.81,1.21a40.23,40.23,0,0,1-5.11,1.3,5.78,5.78,0,0,0-.92.19l0,0h0s0,0,0,.11a5.23,5.23,0,0,1-.12.54l-.08.36a3.57,3.57,0,0,1-.1.35l-.09.28a3.19,3.19,0,0,1-.14.35l1.37,27.7c26.07-14.92,46.36-32.57,72-38,4.56-4.44-1.25-2-7.26.41s-12.21,4.79-8.32.45c19.07-9.26,41.92-13.67,47.77-16.92,13.43-5.88,18.44-10.86,23.54-16s10.24-10.44,23.83-17.36c-3.55.38-8-1.12,1.6-9.25l25.94-21.93-29,14.79a88.54,88.54,0,0,1-8.4,3.59c-10.24,2.76-17,3-19.72,1.78s-1.3-3.82,4.94-6.53c4.84-1.7,7.39-1.84,7.35-1.22,6.4-2.67,14.92-5.91,6.23-5.37l-2.15,2.5c-5.35.67-15.06,3.23-22.67,5.17s-13.2,3.11-10.38.61c-7.42,3.4-8.8,4.7-6.9,4.7a27.61,27.61,0,0,0,5-.8c2.27-.47,5-1.14,7.95-1.87a246.64,246.64,0,0,0-33.74,10.55c-10.15,3.87-20.28,8-33.72,12.56,4.55-.79,9.16-.42,5,1.26a180,180,0,0,0-18.51,7.28,25,25,0,0,0-6.64,4.13c-2.36,2.22-2.51,3.88-11.53,8.69l7.32,13.83c.67-.5,2.08-1.43,3.72-2.46,3.64-1.38,5.41-1.44,6.29-1.15s.93,1,1.22,1.44c.62.86,2,.25,13.54-6.89,3.89-1.46,6.2-1.94,7.34-1.88s1.13.71.47,1.65c-1.34,1.86-5.19,5-7.74,7.1,10-7,20.83-11.24,30.64-14.19s18.75-4.7,25.51-6.93c-3.91,2-7.82,4-11.67,6.06a148.53,148.53,0,0,1,19.12-8.18l-8.29-.7c7.45-2.14,13.66-4.37,14-2.94,6.76-4.93-7.84-3.47,6.13-11.9,10.44-1.82,29.44-12.54,34.43-9.31-31.64,9.55,5,3.25-21,13.33a110.48,110.48,0,0,1,18.74-6.58c1.29.11-.73,1.3-2.67,2.28,31.18-6.61,11.89-9.9,42.78-20.77-3,3.9,8.84,2.22,13.68-.11-11.47,4-8.11-1.12,1-6.67l-9.66-25.93c-.66.45-1.45,1-2.28,1.44-10.14,2.84-15.29,5.24-19.2,7.39l-.72.41-.35.19-.15.13c-.21.16-.4.33-.6.49-.39.32-.8.65-1.25,1a11.56,11.56,0,0,1-3.22,1.64l3-.62,1.6-.35.82-.18.42-.1.3-.08.38-.11c-1.79,3.53-7.89,5.52-17.64,9.92.94-2.54,8.66-4.68,6.15-4.74a22.4,22.4,0,0,1-8.24,4.33,14.92,14.92,0,0,1-6.23.46,21.57,21.57,0,0,0-4.54-.61,13.31,13.31,0,0,0-3.27.71,56.46,56.46,0,0,0-5.66,2.38c-.06-1.11,3.76-3.7,7.21-6.09s6.71-4.65,7.51-5.65c-4.32,2.22-6.67,3-7.31,3s.24-1,1.5-1.94a23.73,23.73,0,0,0,3-2.46c.07-.2-.21-.21-1.14.07s-2.53.87-5.17,1.77c-8.72,4.44-11.23,6-15,7.68-1.9.84-4.08,1.72-7.5,2.93-1.71.59-3.74,1.26-6.23,2a77.39,77.39,0,0,1-9,2.05,28.27,28.27,0,0,0,8.43-.79c2.76-.6,5.4-1.4,7.95-2.11,5.11-1.45,9.82-3,14.15-4.46-10.31,4.67-22.63,9.56-37,14.58a64.5,64.5,0,0,0,7.35-1.59c2.84-.8,5.86-1.74,8.61-2.61,5.52-1.81,9.86-3.29,10.72-3.08-4.38,2-7.67,3.42-10.1,4.45s-4,1.73-5.22,2.35c-2.41,1.25-3.48,2.24-7.05,5.17,2-2.43,1.36-2.94-1.5-2.52a52,52,0,0,0-5.67,1.39c-2.31.62-5,1.41-7.83,2.25s-5.83,1.73-8.74,2.39a33.77,33.77,0,0,1-8.07,1c-2.32-.09-4.24-.73-4.81-2.38l-.1-.31a3.65,3.65,0,0,1,.34-.35l.79-.73c.58-.48,1.2-1,1.91-1.5a53.66,53.66,0,0,1,5.06-3.16L331.56,279c4.93-2.55,7.85-3.85,9.52-4.72a10.32,10.32,0,0,0,2.1-1.29c.36-.33.42-.57.37-.79-.12-.44-.64-.84-.46-1.59s1-1.83,3.22-3.35a64.61,64.61,0,0,1,10.22-5.49q-4.51,1.64-9.7,3.67c-3.79.11-.62-1.81,3.44-3.93,2-1.06,4.3-2.17,6.27-3.25a26.33,26.33,0,0,0,4.87-3.19,17.47,17.47,0,0,0,6.7.09,61.28,61.28,0,0,1,6.42-.71c-1.5-.57,2-2.28,5-4.68l94.72-75.29-106.85,49c-6.56,3-12.7,6.38-13.29,9.4l-9.3,1.61c-3.11.54-6.23,1.08-9.31,1.69-3.95,1.43-7.41,2.85-10.5,4.28s-5.76,2.92-8.21,4.37a118.15,118.15,0,0,0-12.57,8.75c-3.82,2.9-7.54,5.88-12.14,8.9a124.48,124.48,0,0,1-17.36,9.37c7.27-7.07-6.79-2.66,11.59-14-9.69,4.58-18.58,8.32-17.82,10.25-3.19.57-9.43,4.71-16,9.07s-13.6,8.82-18.6,9.83c-3.39,3.21-3.23,6.67-13.9,12-1.43.09-.64-1.31-.64-1.31.64,1.32-15.52,10.57-4.79,8.54-17.63,3.87-39.08,16.19-59.5,27.87l9.42,12.73a113.89,113.89,0,0,1,22.33-17.33c7.67-4.5,15.2-7.62,21.78-8.94,19.37-11.16,44.92-23,63.89-31.74-.86,1.35.54,1.37-3.21,2.7,27.55-9.21,12.81-15,44.16-25.53,17.29-2.44-14.94,9.46-4.63,6.87,8.08,7.07,35.77-17.33,58.27-21.1l-4.67,2.71a48.39,48.39,0,0,0,7-2.2l-12-27.35c-7.3,2.84-15.36,7.32-24.53,12a212.08,212.08,0,0,1-30.8,13.29s1-1.26-.34-1.44c-8.08,5.54-20.54,11.67-33.91,18.22s-27.62,13.61-39.21,20.72c2.81-3.71,5.39-5.51,6.39-6.62s.52-1.41-2.69-2c-2.71,1.52-3.67,2.54-3.92,3.4s.17,1.51.28,2.38c.23,1.78-1,4.06-11.06,10.76-2,.55-4.38,1.57-7,2.64l-4,1.78-2.06.91-2,.93c-1.34.61-2.66,1.18-3.92,1.7s-2.42,1-3.51,1.39c-2.19.72-4,1.08-5.1.7A188.43,188.43,0,0,1,209,291.28c-5.2.81-10.3,3.91-15,7.83s-9,8.85-13,13.17L113.79,386l81.72-54.12a57.37,57.37,0,0,1,7.26-4.22l-.2,2.8c3.79-2.25,7.07-4.3,10-6.2s5.3-3.79,7.52-5.5c4.44-3.42,7.92-6.41,11.37-9.53s7-6.16,11.67-9.76c2.31-1.82,4.89-3.75,7.87-5.86q2.24-1.58,4.8-3.3c1.7-1.15,3.5-2.38,5.45-3.66l-4.17.68c13.54-16.2,16-6.84,30.14-21.93l8.4,1.37c10.19-8.81,35-31.53,54.33-45.53-4.47,5.5-12.09,12.69-20.22,20-4.05,3.67-8.22,7.35-12.18,10.87S309.83,259,306.65,262c5.43-3.76,14.58-10.27,22.87-16.55s15.77-12.31,17.79-15.45c-4.08,3.43-8.78,8.38-13.63,10.55a148.74,148.74,0,0,1,20.4-19.89c2.06-1.68,4.19-3.43,6.46-5.1s4.61-3.36,7-5.06,4.95-3.43,7.59-5.1,5.37-3.32,8.19-5c.4,2.62,3.38,2.63,8,1s10.93-4.57,18-8.18c7.16-3.41,15-7.62,22.88-10.94l5.81-2.52,2.82-1.17a11.88,11.88,0,0,1,1.43-.34,3.93,3.93,0,0,1,1.16,0l.17,0a.19.19,0,0,0,.07.06h0l0-.4c0-.29,0-.59,0-.89,0-.57,0-1.14.07-1.71s.14-1.12.18-1.55a7,7,0,0,1,.28-1.34,5.38,5.38,0,0,1,.3-1l.11-.25.06-.17a1.74,1.74,0,0,1,.16-.34c.44-.85.69-.78.21-.55l-6.48-10.8a26.88,26.88,0,0,1-9,5.49c-6.56,8.09-14.86,15.23-24,21.82s-19.13,12.77-29.4,19.15-20.79,12.72-31.54,19.44c-5.38,3.37-10.82,6.81-16.31,10.38s-11.11,7.35-16.51,11c5.12-.7,7-.58,6.83.21s-2.13,2.18-4.52,3.8c-4.79,3.31-11.09,7.19-7.43,10.33a83.88,83.88,0,0,1-11.18,6.42,29,29,0,0,1-2.93,1.16,4.11,4.11,0,0,1-1.5.24,84.41,84.41,0,0,1-10,1.88l10,16.46,21.54-17.06c8.2-4.76-6.82,10.13-4.53,10.7,19.6-19.62,10.83-5.76,25.23-17.39-3.83.36.14-5.89,7.8-13.88l31.72-33.13-45.74-1.25-5.9-.16c-2.11,0-4.37,0-6.63,0,2.08.09,4.2.39,6.27.59s4.16.64,6.21,1l46.8,7.61-33.78,24.32-10.13,7.28c2.86-3.88,5.45-7.1,7.66-9.63l22.8-26.07L326.91,220c-7.75,0-13.47.23-18.46.29s-9.22.12-13.74.45a60.41,60.41,0,0,0-15,3.14,81.11,81.11,0,0,0-20.09,10.68c3.48-3,7.19-6,11.05-8.82-4.9,2.72-11.77,6.42-19.08,11s-15,9.84-22.24,15-14.13,10.2-20.09,14.52a172.82,172.82,0,0,0-14.57,11.38l20.61,19.66a8.33,8.33,0,0,0,0-1.47,11.22,11.22,0,0,1,1.7-1.54,3.65,3.65,0,0,1,1.71-.69c.46,0,.79.27.86.92a10.14,10.14,0,0,1-.49,3.25,83.36,83.36,0,0,1,6.53-12.41,122.89,122.89,0,0,1,9.49-12.9A250.44,250.44,0,0,1,260.33,247c18.29-16.49,37.28-30.71,53.86-38.83L312.43,212c7-5.34,10.56-11.88,21.15-15.85,0,1.09-1.83,3.77,1.7,1.72,3-2.66,13.82-12.14,23.4-17.8l-13.6-28.11a60.5,60.5,0,0,1-5.88,1.91l5.25-3.62,15.17,31.38-2.91,2.95,3.56-1.88L344,149.06C322.5,156,306.84,164.3,292.39,173s-27.7,17.73-44.45,27.17c-.73-1.48-3.41-1.63-7.29-.9a86.5,86.5,0,0,0-14.46,4.52c-2.76,1-5.61,2.25-8.47,3.52s-5.74,2.56-8.52,3.9c-5.56,2.7-10.83,5.32-15,7.53l.09-1.14a389.75,389.75,0,0,0-40.61,26.91l30.75,24.23a7.43,7.43,0,0,1,.48-1.68,15.09,15.09,0,0,1,1.41-2.47,33.46,33.46,0,0,1,2.37-3c1-1.07,2-2.17,3.18-3.3,2.35-2.28,5.07-4.67,8-7.23l8.7-7.58c11.66-10.11,23.64-20.29,37.18-30.78,19.18-7.74,50.72-29.33,83-49.34l-24.37-27.15a180.87,180.87,0,0,1-40.66,36.13c3.24-1.74,3.82-.56,2.77,1.79a21.51,21.51,0,0,1-2.67,4.19,34.77,34.77,0,0,1-4.36,4.52c-5,2.82-10.76,8.32-15.71,12.29s-8.85,6.5-9.73,3.46l3.5-2.17c-5.25-.06-12.63,3.41-20.78,8.12s-17.12,10.67-25.24,15.65l1.54,8.38a163.1,163.1,0,0,0-32.26,15.85,260,260,0,0,0-32.24,23.85l19.65,26.91c14.55-10.27,28-21.26,39.6-30.5,2.89-2.34,5.74-4.48,8.4-6.56s5.26-3.95,7.73-5.64a67.87,67.87,0,0,1,13.31-7.65c2-2.44,4.18-4.87,6.42-7.39s4.59-5,6.92-7.59,4.58-5.16,6.75-7.71,4.13-5.16,5.91-7.67l2.59,3.43c2.08-2,4-3.9,5.88-5.77s3.7-3.66,5.43-5.46c3.44-3.62,6.77-7,9.91-10.56l4.76-5.31,4.72-5.55c3.23-3.74,6.38-7.84,9.87-12.23L401.9,27.53,257.75,144.86c-5.88,4.79-14.24,11.81-24.61,20.41l4.56-7.48c-9,7-12.7,13.74-16.33,20.4s-7.12,13.28-15.6,19.41c-2.94-.53-5.84-1.07-8.74-1.64-16.61,11.44-34.64,20.44-52.65,28.2l21.94,29.06c4.85-5.15,11.4-10.09,18.69-15.37,3.64-2.64,7.49-5.4,11.36-8.35s7.63-6,11.3-9.15c0,1.14-.06,3.32-5.41,7.05,16.05-10.08,64-35.92,53.56-39.54,3.45,4.52,35.27-21.93,52.24-35.76l-.6,5.34c7.17-8.2,10.15-12.23,15.51-17.14l-12.82-18c-3.2,3.71-7.79,8.15-16.1,15.31-5.13,3.23-6.23.54.78-3.47-8.64,5.24-11.17,8.36-14.14,11.82s-6.39,7.23-16.91,13.5l5.76-7.51c-8.42,6-12.13,9-14.64,11.62s-3.84,5-7.61,9.55c-4.84,4.43-13.08,9.81-20.71,13.83a67.31,67.31,0,0,1-10.32,4.54c-2.92.95-5.14,1.22-6.22.76-.53,1.62-2.69,4.48-6.17,7.17a29,29,0,0,1-13.68,5.9c-.86-.54-.39-1.24.47-1.9a24.5,24.5,0,0,1,3-1.9,68.83,68.83,0,0,1-15.51,1.75,46.36,46.36,0,0,1-12.23-1.91l-1.34-.44-.65-.24c-.17-.06-.35-.11-.51-.18a20,20,0,0,1-2-.83,16.51,16.51,0,0,1-3.61-2.36,9.78,9.78,0,0,1-3.58-7.59,9.37,9.37,0,0,1,2.63-6.17,4.36,4.36,0,0,0,1.9-.08,4.74,4.74,0,0,0,1.48-.66,14.18,14.18,0,0,0-1.69,3.22,10.34,10.34,0,0,0-.51,3.41,9.58,9.58,0,0,0,2.43,6,16,16,0,0,0,3.94,3.24c.15.1.3.17.46.27s.4.23.61.33c.41.19.77.4,1.13.56.71.34,1.31.6,1.79.8.94.39,1.33.57,1,.54.29-.92-.43-2-1.28-3s-2-2.36-1.92-3.09a2.45,2.45,0,0,1,.72-2.18,11,11,0,0,1,1.14-1l.7-.58.1-.07.19,0,.39-.06.87-.13-.72-.08-.37,0-.18,0-.07,0c-.19.07-.4.19-.63.26a4.28,4.28,0,0,1-1.66.18,4.92,4.92,0,0,1-3.76-2.24,5.41,5.41,0,0,1-.75-3.47,7.44,7.44,0,0,1,.48-1.91l.2-.48a4,4,0,0,1,.2-.41,4.68,4.68,0,0,1,.84-1.25,35,35,0,0,1,6-5.89,53.43,53.43,0,0,1,7.39-4.85,10.6,10.6,0,0,1,3-.38c-.58.54-1,1-1.56,1.53.52-.28,1-.56,1.52-.86s1-.63,1.55-1c1-.64,2-1.3,2.89-2,1.84-1.35,3.54-2.75,5.13-4.16,6.16-3.24,10.1-5.22,15.71-8.74,1.94.67,7.51-2.4,13.79-6.27,3.13-1.95,6.45-4.05,9.57-6.07s6.06-3.82,8.41-5.21c-3-3.15,9.76-9.89-3.61-6,1.65-.64-1.52,1.51-7.68,5.46a39.41,39.41,0,0,0-3.77,2.84c.12-.21.27-.46.44-.71-6.1,3.88-14,9-23.08,14.89,6.21-6.51,13-13,24.6-17.38,3.41-5.27,7.32-10.89,9.7-13.8,8-1.37,18.71-4.89,28.09-7.7s17.41-5,20-4.21c8.8-5.2,18.88-10.36,29.17-15.14L294.8,70.14c-8.81,8.69-18.36,16.8-27,24.09L264.66,97l-1.54,1.35-1.53,1.28q-3,2.55-5.75,5c-1.78,1.68-3.54,3.18-5.08,4.75s-3,3.08-4.2,4.56c-7.88,5.31-10.62,3.1-14.31,3.45,1.12-.77,2.34-1.47,3.52-2.24l3.49-2.2a24.39,24.39,0,0,0,5.16-3.91c-1.92,1.32-4.13,2.7-6.5,4.16-1.2.71-2.42,1.49-3.71,2.19l-4,2.14c-2.69,1.45-5.46,3-8.3,4.28l-4.2,2.06c-1.4.68-2.76,1.38-4.14,2-2.75,1.26-5.38,2.5-7.8,3.72s-4.71,2.24-6.65,3.31a42.25,42.25,0,0,0-4.82,3,6.73,6.73,0,0,0-2.42,2.63c-5.89,1.21-8.09,1.26-8.62.77s.67-1.32,1.59-2.08,1.63-1.29.19-1c-.37.07-.86.2-1.52.39s-1.5.39-2.53.68c-2.06.58-4.89,1.45-8.77,2.62,1.27-.91,2.52-1.87,3.77-2.79-13.52,1.71-25.65,3.7-37.24,5.85l14,22.62c4-6.41,11.11-12.77,19.38-18.83,4.13-3.05,8.56-6.08,13.11-9.2s9.1-6.2,13.79-9.28C217.86,116,238.53,104.15,266,94.7c-4.8,1.75-7.19,2.64-8.54,2.3,16.69-7.55,33.26-15.85,49.81-24.54L298.43,56c-27.3,15-54.78,30.6-82.67,44.92s-56.2,27.41-84.89,37.56l13,14.17a31.75,31.75,0,0,1,5.51-5.89c1.73-1.56,3.39-2.93,5-4.18l4.32-3.45c2.64-2.13,4.75-4,6.62-5.83,3.76-3.67,6.55-7.27,11.8-12.24l6.71,1.09,17.71-17.54c27-21.86,56.4-22.91,89.35-52.6l-6.4.47c3.85-2.27,8.83-5.55,14-9l-6-11.6c-7.21,3.16-14.68,6.61-20.16,9.08a62.49,62.49,0,0,1-6.6,2.56c-1.56.43-2.39.35-2.24-.42a40.45,40.45,0,0,1-2.89,3.21,14.17,14.17,0,0,1-6.63,3.41l-1.54-1.87q-16.47,11-31.75,23.41c-3.31,1.85-5.74,3.2-7.64,4a14.38,14.38,0,0,1-4.18,1.29c-1.92.17-2.45-.85-3.31-1.59s-2.05-1.18-5.37.16-8.71,4.55-17.64,11.51c-1.57,1.42-3.29,3-5,4.77s-3.45,3.61-5.26,5.64a64,64,0,0,0-10.15,14.49,32.5,32.5,0,0,0-2.71,8.13,19.94,19.94,0,0,0-.12,6.07,6.86,6.86,0,0,0,.92,2.87c.29.27.59.21.81-.77a18.21,18.21,0,0,1,1.5-6.57,22.12,22.12,0,0,1,3.68-5.82c2.79-3,5.48-4.43,6.51-3.83a38.25,38.25,0,0,0-4.25,6.66,20.51,20.51,0,0,0-2.19,7.62c.82.53,1.62,1.17,2.42,1.77a22.54,22.54,0,0,0,2.55,1.62c1.64,1,3.25,1.7,4.91,1.14a4.19,4.19,0,0,0,.63-.26,4.39,4.39,0,0,1,.61-.31,7.89,7.89,0,0,0,1.17-.57c.81-.45,1.62-1,2.63-1.61a2.72,2.72,0,0,1,.7-.32,7.63,7.63,0,0,0,.76-.33c.25-.13.6-.31.88-.48s.66-.39,1.09-.65l7.08-4.53c1.06-1.42,2.46-3,3.77-4.6s2.65-3.17,4-4.7l4.11-4.65,4.2-4.58c2.77-.71,5.58-1.33,8.34-2-2.72,2-5.46,4.09-8.13,6.22s-5.33,4.25-8,6.41c11-4.77,15.13-11.31,20.83-17.66,2.62.32,6.17-.54,10.51-2.67q8.1-9.31,16.87-18.32c1.94.45.29,3,0,4.56-.14.78,0,1.32,1.19,1.24s3.22-.79,6.88-2.41c4.1-4.1,1.05-4.13-1.19-4.48-1.11-.17-2-.42-1.68-1.32s1.9-2.47,5.81-5.14A40.67,40.67,0,0,1,266,66.26c1.67-.14,2.9-.16,4.09-.38A12.68,12.68,0,0,0,274,64.4a70.91,70.91,0,0,0,6.36-4.31c2.53.83.33,3-4.16,6.15,6.56-4.85,17.06-9.52,24.71-13.58l-14.56-28c-3.78,3-6.69,5.63-7.89,7.9-12.78,3.53-35.55,24-38.06,17.73-2.5,3.48-16,16.42-25.7,22.94,13.67-18.15-37,23.14-36.84,13-3.95,6.06-12.69,12.89-23.08,20.12-5.24,3.67-11.36,7.68-17.59,12.89a81.77,81.77,0,0,0-9.17,8.95,56.11,56.11,0,0,0-7.77,11.53L96.92,186.6l44.91-23.47c4.6-2.41,8.95-4.81,12.87-7.3-1.2,1.16-3.55,3.48-6,4.16,14.68-6,19.75-6,29.56-9-.61-6.16,21.11-17.88,31.41-27,19.9-3.42-7.56,11.37.28,13.6-1.48-1.94,5.61-6.67,12-11.09s12.27-8.44,8.44-8.73c14.84-3.52,12.17-4.24,21.21-3.37-1-7.72,11.75-7.42,20.54-17.17,10.34-3.4,12.36-2.57,14.28-2.47s3.75-.57,13.59-7.2c5.48-1.7,3.92.54,1,3.2S293.82,96.46,293.82,96.46Zm-136,56.28,0-.07c4.19-3.1,7.74-5.44,9.84-6.89l-3.73,2.57C162.26,149.46,160.29,150.84,157.79,152.74Zm-20,52.73a33,33,0,0,1-2.82-6.18,29.64,29.64,0,0,1-1.51-8c0-.94,0-2,0-3.05s.23-2.22.35-3.4.5-2.37.78-3.6.8-2.42,1.24-3.65c1.17-.85,1.83-.52,1.9.67a8.64,8.64,0,0,1-.2,2.47c-.12.52-.22,1.1-.33,1.75s-.27,1.34-.45,2.09c0-.91-.45-.59-.86.64-.2.61-.42,1.45-.66,2.46s-.29,2.21-.45,3.52a28.24,28.24,0,0,0,.6,7.22A34.55,34.55,0,0,0,137.74,205.47Zm80-56.67c-5.88,4.38-8.39,5-9.7,4.84,2.88-1.94,6.23-4.21,10.57-7.28.1-.24.37-.63.46-.89A7.14,7.14,0,0,1,217.73,148.8Z"/><path class="cls-2" d="M226,137.16c.85-.63,1.26-1.09,2.42-1.83-1.47.46-2.86.92-4.23,1.47-.53.85-1.07,1.7-1.52,2.49C223.79,138.57,225,137.82,226,137.16Z"/><path class="cls-2" d="M322.59,352.12l.92-.39a7.86,7.86,0,0,1-2.11.45A6.79,6.79,0,0,1,322.59,352.12Z"/><polygon class="cls-2" points="185.59 222.04 186.34 222.8 188.72 219.51 185.59 222.04"/><path class="cls-2" d="M348.41,372.36a8.45,8.45,0,0,0,3.57-.57C351.72,371.61,350.22,371.93,348.41,372.36Z"/><path class="cls-2" d="M354.71,350l-14.22,6.94C346.75,354.08,351.2,351.83,354.71,350Z"/><path class="cls-2" d="M280.6,392.91a4.59,4.59,0,0,0-.49,2.41l.16-.06Z"/><path class="cls-2" d="M383.4,303c-1.79.68-3.55,1.39-5.14,2.09-6.09,2.67-7.14,3.19-5.42,2.49S378.94,305,383.4,303Z"/><path class="cls-2" d="M331.49,308.9c3.33-2.8,6.61-5.57,10.23-8.24C335.35,304,330.47,306.72,331.49,308.9Z"/><path class="cls-2" d="M253.9,313.92s0,0,0-.09l-2.45,1.28Z"/><path class="cls-2" d="M357.8,309.12c1.3-.22,2.56-.47,3.6-.68l-6.81-15.69a86.15,86.15,0,0,0-12.87,7.91c4.21-2.19,9-4.69,13.18-7.38l6.32,14.56C360,308.26,358.87,308.68,357.8,309.12Z"/><path class="cls-2" d="M417.9,427l4-.53c-.11-.26.09-.53.36-.75Z"/><path class="cls-2" d="M422.3,425.72l1.25-.36-9.33-22.56L411.74,405a25.38,25.38,0,0,0,2.61-2l9.16,22.16A2.86,2.86,0,0,0,422.3,425.72Z"/><path class="cls-2" d="M404.46,411.39l7.28-6.41C409,406.89,405.56,409.15,404.46,411.39Z"/><path class="cls-2" d="M308.24,450.29l-.6,1.34-15.72,35,5.26-56.91.05-.53c-.11.18-.19.35-.12.43l10.56,22.16A1.67,1.67,0,0,0,308.24,450.29Z"/><path class="cls-2" d="M325,411c-6.92,4.43-18.75,9.16-27.58,16.53l-.18,1.61C300.33,424.19,320.08,417.6,325,411Z"/><path class="cls-2" d="M324.54,392.42,351.48,382c-5.28.53-12.23,1.17-.36-4.43C315.83,387.66,359.46,377.9,324.54,392.42Z"/><path class="cls-2" d="M300,405.49c-12.83,8.75,1.39,1.92,1.17,3.14C308.77,402.22,310.6,400.66,300,405.49Z"/><path class="cls-2" d="M333.75,326l-.25-4.14C323,327.46,334,323.27,333.75,326Z"/><path class="cls-2" d="M227.56,392.33l11.81-1.91,3.93-5.3C238.08,387.58,232.81,389.93,227.56,392.33Z"/><polygon class="cls-2" points="252.24 378.9 247.81 381.8 265.01 371.31 252.24 378.9"/><path class="cls-2" d="M190.3,336.35c-1.81-.73-3.57-1.39-5.4-2.06a10,10,0,0,0-2.87,3.59c-.47,1.07-.46,1.93,0,2.37C183,341.13,185.58,340.32,190.3,336.35Z"/><path class="cls-2" d="M259.19,291.25c5.57-.91,17.49-7.11,22.85-13.69C273.17,283.34,263.32,287.71,259.19,291.25Z"/><path class="cls-2" d="M169.82,236.28l7.22-6.54q-7.26,5.41-14.5,11C165,239.24,167.39,237.77,169.82,236.28Z"/></g></g><g id="Livello_1" data-name="Livello 1"><path d="M81.18,395c-11.85-10.85-8-24.31-8.42-37.13-.56-18-2.28-35.88-2.9-53.84-.79-22.55.7-45.31-1.87-67.63s7.52-44.57-.67-66.85c-.91-2.48,2.84-8.79,5.91-10.28,30.54-14.79,61.41-28.91,92.15-43.29,4.73-2.21,9.11-5.21,13.91-7.21,21.45-9,42.94-17.83,64.59-26.29a15.63,15.63,0,0,1,11,.06c23.83,11,47.67,22,71.05,33.91C354.49,131,382.05,147.61,411.11,161c14.39,6.63,18.31,13.36,19.09,29.77,1.77,37.48,3.87,74.76.91,112.26-1.5,19.07-1.52,38.25-2.24,57.38-.85,22.22-16.41,34-32.84,44.37-10.31,6.49-25,8-32.66,16.34-23,25.05-56.52,29.93-83.63,46.85-14.52,9.07-31.94,8.22-48.4-.6-21.51-11.52-43.74-21.67-65.64-32.46-10.42-5.13-20.84-10.25-31.14-15.6-16-8.29-31.74-16.87-47.76-25C85.13,393.46,82.34,394.83,81.18,395Zm7.63-198.69c1.55,9,3.5,15.39,3.61,21.81.56,33.74.65,67.49.93,101.23.09,10.93,1.86,22.17-.08,32.72-2.09,11.36,2.06,17.05,11.32,21.26,3.19,1.46,6.22,3.27,9.34,4.9,35.88,18.76,71.61,37.83,107.72,56.12,17.21,8.72,17.42,8.06,16.74-10.46-.69-18.84-1.12-37.69-1.63-56.53-.48-17.6-1.1-35.19-1.32-52.78-.23-18.44-.05-36.88-.05-51.93ZM266.46,440c3.5-1.07,5.26-1.3,6.7-2.1,17.27-9.62,34.47-19.36,51.73-29q30.74-17.19,61.54-34.24c3.65-2,7.4-4.88,11.29-5.24,10.94-1,10.95-7.75,10.89-16.22-.23-30,.24-60,.35-90,.08-22,0-44,0-67.34-9.45,4.58-19.35,10.8-30.13,14.23-14,4.45-14.59,14.12-14.29,25.9.28,11-3.21,22.58-.95,33,3.3,15.22-6.43,19.65-16.08,23.79-7.56,3.24-16.7,5.83-24.46,4.57-6.54-1.05-16.6-7.51-17.23-12.56-1.58-12.74,1.27-26,2.63-42.64-8.86,5-15.63,9.14-22.63,12.81s-14.5,7.06-22.41,10.87C265.92,323.17,261.18,381.21,266.46,440Zm30.4-220.86c-2.3-1.74-3.5-3-4.95-3.7-19.3-9.92-38.58-19.88-58-29.61-22.15-11.12-44.74-21.39-66.47-33.26-12.65-6.91-23.59-5.57-35.15,1.26-9.52,5.64-19.23,11-29,16.48,3.87,2.29,7.54,4.84,11.52,6.75,21,10.1,42,20.17,63.07,30,20.73,9.65,42,18.34,62.27,28.76,8.19,4.2,14.63,4.5,22.34.41C273.35,230.55,284.4,225.35,296.86,219.18Zm-97.18-92.94c26.41,12.88,51.69,25.24,77,37.56,20,9.77,40,19.67,60.25,29.07,3.9,1.81,9.52,3.42,13,2,15.24-6.29,30-13.74,46.68-21.59-19.71-8.86-38-17-56.28-25.32-13-5.92-25.77-12.18-38.7-18.17-13.65-6.31-27.63-12-41-18.89-10-5.18-19-6.93-29.29-.69C221.75,116,211.25,120.46,199.68,126.24Z"/></g></svg>