<svg xmlns="http://www.w3.org/2000/svg" viewBox="0 0 500 500"><defs><style>.cls-1{opacity:0.41;}.cls-2{fill:#389f32;}</style></defs><title>Help</title><g id="Livello_4" data-name="Livello 4"><g class="cls-1"><path class="cls-2" d="M307,471.06c-1.72,2.94,1.47,4.19,8-1.54l1.9-7.69Z"/><path class="cls-2" d="M359.08,442.92c6.67-8.11,13.47-18.62,5.44-18.23-5.15,9.93-8.31,9.83-13.52,21-6.57,5.73-13,7.93-13,5.59-1.67,2.88-11.4,7.32-13.23,12.64,11.32-3.8,22.82-12.37,32.8-24C360.8,438.83,359.11,441.75,359.08,442.92Z"/><path class="cls-2" d="M305.21,353.31l-5,2.25A34.79,34.79,0,0,0,305.21,353.31Z"/><path class="cls-2" d="M303.41,303.25c3.79-1.42,5.23-2.44,5.28-2.93C305.23,301.85,302.41,303.14,303.41,303.25Z"/><path class="cls-2" d="M216.91,332.31l5-1.95A12,12,0,0,0,216.91,332.31Z"/><path class="cls-2" d="M305.21,353.31l12.94-5.74C318.18,345.68,311.32,350.16,305.21,353.31Z"/><path class="cls-2" d="M316.16,450.39a40.82,40.82,0,0,0,6.95-3.21c-2.25.83-4.44,1.6-6.72,2.34A3.41,3.41,0,0,1,316.16,450.39Z"/><path class="cls-2" d="M290,372.63c1.25-.61,2.52-1.18,3.76-1.82a21.08,21.08,0,0,0,2.21-3.35C294,369.2,292,370.94,290,372.63Z"/><path class="cls-2" d="M300.25,398.27c3.46-2.07,2.29-6.36,2.56-8.75-.94,2.71-3,5-5.72,7.27C297.48,397.49,298.45,398,300.25,398.27Z"/><polygon class="cls-2" points="285.08 448.62 281.79 451.79 277.41 443.29 277.85 443.1 277.41 443.29 281.79 451.79 285.08 448.62"/><path class="cls-2" d="M217.35,410.25a3.56,3.56,0,0,0,2.16.49C219.24,410.28,218.43,410.16,217.35,410.25Z"/><path class="cls-2" d="M217.87,47c.06.33.33.37.44.61C218.92,46.68,219,46.25,217.87,47Z"/><path class="cls-2" d="M148,128.56l-.09-1.51c0-.5,0-1,0-1.51a7.54,7.54,0,0,0-2.24-1.11c.32.74.69,1.46,1.05,2.15S147.6,127.93,148,128.56Z"/><path class="cls-2" d="M337.53,317c-.32.07-.42.11-.71.19C333,319.16,335.21,318.2,337.53,317Z"/><path class="cls-2" d="M272.66,295.39l0,0h0l-18.3-28.12h0l18.29,28.11L254.32,267.3c2.51-.09,3.51.16,3.5.74s-1.05,1.47-2.51,2.45l14.78,22.72c3.05-5.95,9.83-15.82-2.85-5.33.65-.17.44.94-.19,2.67l-10.54-16.19c1.74-1.7,4.51-4.2,5.08-5.94.29-.84.05-1.46-1.06-1.66a10.41,10.41,0,0,0-2.34,0c-1,.11-2.31.27-3.88.54l18.31,28.13Z"/><path class="cls-2" d="M311.62,451.06c-2.28.67-4.59,1.37-6.93,2A56.36,56.36,0,0,0,311.62,451.06Z"/><polygon class="cls-2" points="267.24 287.88 267.21 287.85 265.56 289.25 257.1 276.24 257.57 276.16 257.09 276.23 265.57 289.26 267.24 287.88"/><path class="cls-2" d="M352.18,255.35a4.61,4.61,0,0,0-2.4-.7A5.46,5.46,0,0,0,352.18,255.35Z"/><path class="cls-2" d="M341.84,281.37c-1,.2-2,.39-2.95.55A8.93,8.93,0,0,0,341.84,281.37Z"/><path class="cls-2" d="M208.18,293c-3.48,1.62-4.9,1.76-9.14,4.84a8.33,8.33,0,0,0,1.63-.34C202,296.06,204.07,294.58,208.18,293Z"/><path class="cls-2" d="M202.13,318.66c-.85.07-1.89.34-2.83.52l-4.06,2.4Z"/><path class="cls-2" d="M144.74,117.37a21.86,21.86,0,0,1,8.12-.29c-1.77-.72,2.08-4.1,3.45-5.58.68-.74.74-1-.83-.23-.78.39-2,1-3.7,2S147.79,115.56,144.74,117.37Z"/><path class="cls-2" d="M315.46,448.13c-.57,1.25-1.67,2.1-3.84,2.93,1.66-.5,3.23-1,4.77-1.54C316.65,448.8,316.59,448.2,315.46,448.13Z"/><path class="cls-2" d="M219.29,325c-7,3.78-14.07,7.65-21.11,11.52C204.2,333.43,211.85,329.2,219.29,325Z"/><path class="cls-2" d="M134.21,254.48l3.9-3.75A15.63,15.63,0,0,0,134.21,254.48Z"/><path class="cls-2" d="M140.79,318.05c2.39-.95,4.71-2.08,7-3.17,1.16-.57,2.31-1.17,3.46-1.77s2.31-1.18,3.45-1.81a14.77,14.77,0,0,0,1.94-2.63C151.36,311.53,146,314.56,140.79,318.05Z"/><path class="cls-2" d="M152.93,117.09c-.06,0-.07,0-.07,0S152.87,117.1,152.93,117.09Z"/><path class="cls-2" d="M269,94.74c20.22-11.75,6.7-10.24,9.34-15.49,2.89-2,5.26-3.47,7-4.5l-15.23-26c-13.9,7.87-7.26-1.27-15.62.65-14.22,9.82-23.15,20.79-34.4,27-1.29-.32-3.62.63-1.65-1.81-13.61,12.86-46.79,27-62.45,42.34a6.69,6.69,0,0,1-3.08.18c4.35.7,6.21,2.89,6.6,5A119.75,119.75,0,0,0,148,130.28c-3.29,2.46-6.06,4.19-8.76,3.85a20,20,0,0,0,5-4.17c.88-1.14,1.32-2.15,2.35-3.44-2.94,2.37-5.89,4.84-8.76,7.46-2.88.43-3.61.05-3.05-.95s2.38-2.5,4.52-4.05c4.3-3.15,9.73-6.38,8.76-8a137.33,137.33,0,0,0-17,13.57,75.83,75.83,0,0,0-14.47,18.29l-10.16,18.61,19-5.06c4.08-1.08,8-2,11.7-2.8a97.18,97.18,0,0,1,10.36-2c1.66,1.51-2.78,3.25-8.12,4.83l-2,.59-2.06.49-3.93.91a37.48,37.48,0,0,0-5.36,1.49l-25.74,11.89,13.31-30.85c.41-1,.26-1.2-.69-.44l-16.35,13,29.6,7.24a36.15,36.15,0,0,0,6.07.42l-5.9.61-32.73,3.42L112,149.88a70.35,70.35,0,0,1,17.41-16.44l-3.55,1.19c-1,.34-1.75.6-2.36.77-1.21.33-1.73.33-1.77,0s.41-.8,1.09-1.47,1.62-1.45,2.57-2.19,1.91-1.51,2.65-2.13a3.89,3.89,0,0,0,1.31-1.55c0-.36-.35-.59-1.46-.5a25.42,25.42,0,0,0-5.77,1.4,72.81,72.81,0,0,0-9.66,9,60.3,60.3,0,0,0-6.2,8.24L79.61,188.07l47.78-9.65c5-1,9.34-1.91,13.33-3l5.82-1.66c1.9-.57,3.82-1.06,5.75-1.71s3.93-1.24,6-1.88l3.25-.95c1.11-.33,2.24-.72,3.43-1.08,2.37-.74,4.91-1.5,7.68-2.29s5.73-1.79,9-2.76c3.27-2.62,2.27-3.39,1.31-4.16-.49-.39-1-.77-.93-1.39s.6-1.45,2.15-2.82c2.74-1.4,5.28-2.63,7.66-3.71s4.52-2.17,6.57-3,4-1.61,5.71-2.31,3.4-1.29,5-1.8a81.59,81.59,0,0,1,15.09-3.26c2.16-.26,4.17-.6,6.26-1.06a39.09,39.09,0,0,0,6.52-2,41.31,41.31,0,0,0,7.47-4.29,53.87,53.87,0,0,0,4.31-3.31c1.49-1.31,3.05-2.77,4.71-4.41,3-4,4.13-8,7.41-12.44a47.94,47.94,0,0,1,6.78-7.32A123,123,0,0,1,280,96.37q-1.37,5-2.85,10.12a83.2,83.2,0,0,0,9.31-8.77,48.73,48.73,0,0,0,4.82-6.22L345.05,7.59,273,64.7c-3.66,2.9-5.31,5.13-8.83,7.68A43.66,43.66,0,0,1,257,76.55c-1.57.8-3.39,1.65-5.51,2.56s-4.52,1.91-7.27,3c2.12-2.48,7.67-5.88,12.09-8.45s7.77-4.2,5.37-3.41c-2.78.73-5.07,1.42-7,2.12a34.59,34.59,0,0,0-4.62,2.11,15.46,15.46,0,0,0-5,4.11c-2.25,2.81-3.7,5.72-11.1,9.94l-5.63-2.67c-7.48,4.58-15,9.55-22.39,14.8s-14.83,10.78-22.2,16.45-14.77,11.45-22.18,17.24L150.49,143l-5.64,4.3c-2,1.5-4,3-6,4.66.45-1.31,1.85-3.32,2.06-4.44.11-.57-.08-.92-.84-.84a13.17,13.17,0,0,0-4.32,1.77,98.09,98.09,0,0,0-15.54,16.06c-.64.87-1.21,1.76-1.87,2.72l-.48.74-.49.82-1,1.68c-.31.57-.62,1.13-.92,1.7l-.8,1.76a32.94,32.94,0,0,0-1.44,3.6A40.41,40.41,0,0,0,111,192.84a38.4,38.4,0,0,0,8.16,21.44,46.82,46.82,0,0,0,8.39,8.31,51.35,51.35,0,0,0,4.41,3.06q2.21,1.35,4.48,2.49a59.7,59.7,0,0,0,19.12,5.73,55.78,55.78,0,0,0,10.29.32c1.59-.14,3.16-.26,4.72-.46s3.11-.42,4.61-.75a87.48,87.48,0,0,0,17-5.24,130.45,130.45,0,0,0,14.54-7.24c4.47-2.55,8.62-5.15,12.52-7.64l11.27-7.26q5.8-7.08,11.51-14.21c3.3-2.47,7.28-3.1,4.26.31,15.34-9.77-1-2.77,4.84-9.47,7.9-6.57,12.24-6.42,7.94-1.33,10.62-10.57,25.52-25.07,41-39.69L282.87,118.9c-19.17,14.74-39.6,29-55.62,37.07l4.57-4.77C209.56,164.49,213,175.27,191,185.58l3.33-3.26c-11.62,7.5-23.33,15.5-34.95,23.58-5.79,4-11.83,8.22-17.79,13a108.79,108.79,0,0,0-16.93,16.57L86.73,282.7l54-27.43c26.57-13.5,49.25-29.2,68.85-40.38.68-2.53,3.86-5.89,8.22-9.66s9.83-8,15.08-12.24c10.51-8.47,20.16-16.88,18.6-21.39a14.52,14.52,0,0,1,3.14-1.83l-17.36-15.69c-4.77,4.9-8.17,8.21-11.16,10.84L222,168.57,218.06,172c-1.35,1.2-2.76,2.49-4.33,4s-3.37,3.14-5.42,5.13l-7.16,7c-2.72,2.72-6,5.74-9.66,9.32a33.33,33.33,0,0,0-4.83,6.19c-1.27,2.1-2.29,4.24-3.39,6.44s-2.22,4.53-3.68,7a52.2,52.2,0,0,1-5.76,7.65l-3.45-3.08c-3.61,5.66-7.3,11.31-11.15,16.88-3.81,1-7.7,1.83-11.51,2.7-1.56,1.63-3.16,3.23-4.78,4.81l-4.83,4.76c4.31-3.22,10.17-5.7,10.39-4.17a106.72,106.72,0,0,1-8.49,7.63c-3.11,2.43-6.34,4.81-9.61,6.95s-6.5,4.1-9.56,5.76-5.9,3.07-8.33,4.17l21.06,26.59c4.65-2.57,7.79-3.82,8.4-3.34,11.69-11.43,24.49-22.31,37.73-33,.07,1.09-1.59,3-3.83,5.18s-5,4.79-7.4,7.2c9.58-9.72,11.4-9.4,12.88-8.89a3.19,3.19,0,0,0,3.09-.31c1.65-.87,4.17-2.9,8.79-7.31-3.38,1,0-3.3-.09-4.39a91.45,91.45,0,0,0,10.91-5.45c2.1-1.19,4.31-2.5,6.59-3.9s4.67-2.95,7.08-4.53c4.82-3.14,9.8-6.7,14.64-10.24,2.42-1.75,4.78-3.65,7.08-5.45s4.54-3.58,6.64-5.37c-.48,1.73-1,3.37-1.48,5.07,2.82-1.93,5.6-4.09,8.41-6.22s5.64-4.26,8.41-6.63l8.39-7.07,8.25-7.65a260.93,260.93,0,0,0,31-35.59L382.21,58.06,281.18,131l-32.24,23.26c13.54-7.83,13.81-1.24,3.8,6.56l-7-1c-4.88,7.24,11.84-6.25.35,6.58-13.39,9-12.07,1.91-5.48-4.86l-14.89,13c-1.8-.49,1.46-3.85,1.33-6.06-2.36,3.61-9.93,7.68-17.67,12.3s-15.64,9.78-18.67,15.44l-1.77-.48c-13.24,10.15-23.46,18.5-32.69,26.26a174.7,174.7,0,0,0-14.7,13.35,73,73,0,0,0-7.69,9.55,54.47,54.47,0,0,0-6.45,13.06L106.25,322l53.05-40.56c4.5-3.44,10.16-7.72,16.64-12.24-.92-1.92,1.48-4.62,5-7.83,1.75-1.61,3.77-3.38,5.77-5.26a54.47,54.47,0,0,0,5.71-6c11-6.28,22.95-12.31,35.51-18.45s25.71-12.45,39.16-19.47c2.26-1.43,4-2.61,5.38-3.57a34.22,34.22,0,0,0,3-2.28c1.35-1.18,1.52-1.78,1.36-2.22-.34-.89-2-1.17,1.77-4.42,1.53,1.35,9.16-1.26,14.74-3.06s9.18-2.68,2.58,1.8c14.09-6.74,24-11,33.28-15.24l-16-30.59c-6.36,4.47-12.56,9-19.85,14.45s-15.67,12-26.25,20.66c5.12-1.75,10.28-4.5,8.57-1.71-6.7,5.45-16.92,10.18-17,8l1.62-1.67c-15.17,13.78-33.65,26.81-52,41.06-9.21,7.23-18.51,15-26.77,24.33a112.68,112.68,0,0,0-11.32,15,89.44,89.44,0,0,0-8.32,17l-15.36,42.61,42.39-18.23a109.09,109.09,0,0,0,18.27-10,93.48,93.48,0,0,0,13.64-11.25l-1.8,1.73c11.73-9.78,22.12-19.59,32.88-27.69,4.07-2.25,5.61-2.71,5.8-2.46s-.92,1.38-2.13,2.6c-2.42,2.53-5.11,5.46,1.21,3.09a75.08,75.08,0,0,1,22.29-12.78,57.12,57.12,0,0,1,10.38-2.49,54.27,54.27,0,0,1,9.64-.29l-11.86-27.61C274.28,241,261.94,253.5,250,270.7a23.24,23.24,0,0,0-3.23,2.07l-40.93,30.81,58.75-3.43a57,57,0,0,0,16.2-3.67,98.86,98.86,0,0,0,17.09-8.5c5.6-3.42,11-7.3,16.24-11.18s10.52-7.94,15.88-12.05c10.7-8.23,21.56-16.67,32-24.13,5.21-3.73,10.3-7.21,15.22-10.32s9.77-5.92,14.37-8.3l-3.55-.68c3.54-4.29,6.39-6,9.22-7.26,1.42-.63,2.83-1.13,4.31-1.76a26,26,0,0,0,4.75-2.7c-1.13-.39-3.87,1.09-5.76,2s-3,1.13-.72-1.59C410,201,420.31,191.19,429.6,179.09l6.6-8.61-4.71-9.26a25.09,25.09,0,0,0-2.29-3.75,21.91,21.91,0,0,0-3.18-3.34c-.58-.49-1.19-.95-1.81-1.38a17.87,17.87,0,0,0-1.83-1.11c-.6-.32-1.26-.66-1.86-.91s-1.14-.45-1.72-.65a24,24,0,0,0-6.08-1.18c-.92-.07-1.65-.05-2.48-.05s-1.45.08-2.18.14a34.35,34.35,0,0,0-7.09,1.52c-1.05.34-2.05.71-3.05,1.13-.5.2-1,.43-1.5.67l-.67.32-.42.21-13.44,6.84c-2.27,1.1-4.45,2.33-6.66,3.54l-6.63,3.61c-2.2,1.22-4.47,2.36-6.62,3.64l-6.54,3.79c-17.44,10.09-34.57,20.82-51.24,31.93-33.41,22.15-65.54,45.39-97.12,66.53-6.71,4.62-10.56,8.11-13.1,11.27s-3.78,5.92-5.38,8.6c-3.21,5.29-7.73,11-26.82,18.78L169,301.13c-3.09,2.3-6.21,4.58-9.4,6.85l25.73,32.29c8.34-10.36,19.17-19.26,31.37-26.81s25.74-13.85,39.75-19.67,28.53-11.19,43-17.08,29.05-12.29,42.91-20.14L327.66,225.4l-3.66,2a42.91,42.91,0,0,0,3.09-3.27L343,257.79c-1,1.07-2.33,2.18-5.57,3.68a44.71,44.71,0,0,0,6.44-1.89l-17.65-37.2c-15.64,5.36-40.41,20.45-39.46,22.87-9.4,4.14-3.3-1.37-9.65,0-13.52,4.14-29.52,19.4-37.74,19.42-1.39,0,3-2.76,5.18-4.13-7.42,5.54-38.21,18.16-28.58,18.07a244.92,244.92,0,0,0-32.12,15.91c-5,2.9-10,5.8-14.77,8.66-2.42,1.38-4.8,2.84-7.2,4.15s-4.78,2.64-7.16,3.95c-2.64,3.45-7,7.11-11.82,11s-9.92,8.22-14.09,12.44L40.5,424.22,149.83,361c6.37-3.68,11.23-7.09,11.28-10.26,1,3.38,10.95-1,22.12-7.48s23.6-15,29.51-20.27c-3.46,4.35,12.72-4.83,8.87.64,15.23-8.82,28.74-17.59,24.39-19.19,16.15-4.21,29.69-13.13,42-20.78,3.08-1.89,6.08-3.72,9-5.39a89.79,89.79,0,0,1,8.61-4.31c5.59-2.45,11-3.7,16.15-3.2,2.47-1.36,5-2.65,7.42-3.92l7.27-3.76,13.63-6.78-16-32.11c-21.31,16.35-40.93,31-59.59,44.6s-36.35,26.2-53.71,38.32c-5.42,1.36,7.95-8,20.76-17,6.41-4.51,12.68-8.93,16.68-12.18s5.76-5.37,3-5.11c-13.12,10-23.79,18.42-33.34,25.88l-13.7,10.63-6.6,5-3.29,2.47-.83.62-.41.31a.84.84,0,0,0-.19.2l-.66.76c-.26,1.09-.72,2.3-1.06,4a18.58,18.58,0,0,0-.35,2.89c0,.55,0,1.14,0,1.77l.08,1s0,.08,0,.13l.15.15.29.3c.19.2.38.41.58.59,6.69,6.17,12,5.54,17.86,6.86,3.38.77,1,1.41-2.61,1.72-3.39.2-7.75,0-9.49,0a113.17,113.17,0,0,0,23.85,2.59l3.58-.07,1.77,0h.89l1-.12,8.3-.93c6.09-1.06,12.24-2.17,18.88-3.7l4.89-1.08,5.14-1.3,5.15-1.31,2.57-.66,2.72-.79,10.85-3.21,11.33-3.77a469.88,469.88,0,0,0,45.73-18.85c0,.68-6.36,4-12.74,7.08,6.07-2.57,13.21-5.11,18.57-7.45l1-.43.6-.29c.36-.18.7-.35,1-.53a9.67,9.67,0,0,0,1.55-1c.79-.68,1.05-1.33.54-1.95l-3.42,1.87-.9.49-1.38.68-2.8,1.38c-4.18.68-4.44-.24-2.72-1.94a34.92,34.92,0,0,1,3.89-3.1l1.29-.91c.26-.17.35-.27.53-.4l.48-.39c.67-.52,1.38-1.06,2.13-1.61,6-4.43,14.44-9.79,18.77-13l-3.47-8.57c-2,1.31-3.11,2.24-3.19,2.69,9.34-13-37.75,12.19-21.88-5.87-4.64,2.41-10.21,6.12-8.35,7.61-7.42,2.22-10.13,2-3.68-3-25.8,11.75-15.23,11.18-39.19,20.35-.46-1.42,4.18-3.83,6-6.41-5.54,3.69-11.1,7.39-17.88,11A175.33,175.33,0,0,1,264,312c.87-1.34-1.94-1.44,4.13-3.93a259.61,259.61,0,0,0-36.37,19.31c-11.17,6.94-21.86,14.4-33.82,22.52L205.48,363a208.08,208.08,0,0,1,22.13-9.95c-4,5.46-.7,4.47,4.17,2.69s11.34-4.3,13.44-2.16q9.53-5.11,19.2-10c-3,.24-6,.55-9.06.83,8.75-3.66,16.68-7.91,24.44-11.76s15.36-7.25,23.38-9.14c-4.19,2.31-8.35,4.63-12.48,7q16.47-6.72,33.23-12.79c-6.6,1.44-13.21,2.91-19.79,4.51,8.61-4.57,7.58-6,7.41-7.27s.57-2.24,12.94-5.47c-2.2,1,1.52-.18,7.28-1.73l-3-6.35c-5.88,3.39-14.31,7.95-19.81,9.31,0,0,.06,0,0-.05C302,317.24,294.64,324,281.78,330.2c-4.08.37-.68-6.82-3.35-6.6-2.78,4.41-12.2,10.5-21.95,16.65s-19.8,12.41-23.73,17.5c2.86-3,1.58-5.63.15-5.5L228,359.43c-8.33,3.32-9.75,3.41-9.64.67-11.8,6.21-9.11,6.7-7.08,7.28s3.38,1.22-11.26,7.49c2-1.46.72-1.39,5-4.38-9.71,4.72-18.93,9.8-27.93,14.93l-13.64,7.77,13.95,6.12a22.25,22.25,0,0,0,5.7,1.65,26.25,26.25,0,0,0,5.43.15A36.81,36.81,0,0,0,197.6,399c2.7-.94,5.19-2.06,7.42-3.06l6.81-3c9.07-4,18.07-7.86,27.26-11.18,5.12.84-.65,3.74-6.35,6.45s-11.33,5.17-5.79,5.44c19.5-8.77,38.95-19.45,58.07-30.19s37.88-21.64,56.31-30.86l-7.05,3.1c.63-4.89,7.84-7.58,16.9-10.91s20.05-7.23,28.11-14.09c-4.11,3.06-3.57,7.17-2.82,5.72,5.3-2.73,10.48-5.77,16-9.11l-11.34-19.19C361.64,299.81,341,314.67,313,333.28l3.51-4.42c-15.19,6.74-38.13,21-54,29.2-3.55,4.43-12.54,9.29-5.68,8.73-25.9,8.57-47.27,22.53-67.74,36.46l-20.43,13.91,23.47,1.66a90.61,90.61,0,0,0,21.46-1.09c3.45-.53,6.8-1.29,10.11-2s6.55-1.65,9.73-2.58c6.41-1.81,12.62-3.77,18.85-5.52,3.1-.88,6.2-1.72,9.36-2.46s6.3-1.46,9.51-2.09c-5.5,2.25-12.59,6.83-8.15,5.14q19.51-8.51,38.21-18.57a8.62,8.62,0,0,0-5.8-.23,62.31,62.31,0,0,1-9.27,1.95c4-4,14-10.46,23.13-15.23-3.88,2.69-5.71,4.26-6.08,5.19s.71,1.15,2.55,1c3.65-.33,10.33-2.3,14.39-3.44-1.71-.28.2-2.65-.92-3.27a42.34,42.34,0,0,0,6.43-1.85,12.62,12.62,0,0,0,3.36-1.78c1.46-1.16,1.61-2.34,1.93-3.68.65-2.75,2.08-5.95,15.77-12.11l-.36,2.38c8.25-6.23,15-13.27,23.8-19.59L369,337.3c-.71.47-1.52,1-2.34,1.48-2.77-.26-1.46-1.83.81-3.78l4.3,6.18c-2.87,2.64-7.34,6-6.66,7.75a73.22,73.22,0,0,0,7.63-6.4l-6.19-8.91c-10.1,8.95-18.63,19.58-30.6,23.68,5.33-4.89,13.88-10.59,19.21-15.47-16.41,5.26-17.35,7.32-28,13.51l1.07-.58-24.9,14,6.75-2.95c-11.75,20.36-34.64,25.31-54.47,46.71,19.37-20.65,1.72-5.65,1-10.6-6.72,3-16.67,7.87-14.77,5.07-.63.73-1.28,1.4-1.89,2l-12.38,12.22,10.6,7.61a36.87,36.87,0,0,0,3.68,2.51,26.3,26.3,0,0,0,3.84,1.9,32.18,32.18,0,0,0,7.47,2.07,41.42,41.42,0,0,0,12.87-.15,39.91,39.91,0,0,0,11.44-3.67c.93-.45,1.84-1,2.76-1.5s1.62-1,2.45-1.62a57.13,57.13,0,0,0,5-3.94c1.39,1,13-6,11.86-1.39,15.26-8.49-4.81-.54-4.27-2.82,17-12.31,43.14-18.41,68.89-30.93l-14.91-9.2.16,0h-.09a4.16,4.16,0,0,1-.44-.06l-.21,0-.36-.07a5.19,5.19,0,0,1-.73-.23c-.15,0,0,0-.06.12a7.69,7.69,0,0,1-1.41,2.48,43.94,43.94,0,0,1-3.37,3.87l-2.26,2.31c-.78.81-1.56,1.63-2.32,2.46-24.81,22.42-26.72,30.08-49.84,50.75-9.72,4.45,3.58-9.42,3.58-9.42A172.69,172.69,0,0,0,275.14,443l-27.72,20.49,33.24-9.75c8-2.35,15.5-5.13,23.93-8.5-2.73,2.1.73,2.23,5.79,2.54a26,26,0,0,0,10-5.33c2.27-1.64,5.12-3.14,13.49-4.12-2.39,2.28-5.3,5.7-10.76,8.81,14-5.05,27.64-11.14,42.46-15.67,4.53,1.64-8.27,5.72-13.16,8.6,11.7-3.57,28.5-7.88,38.95-11.69L384.93,414c-3.21,3.41-5.42,6.27-6,8.16l8.46-4.88,3.17,7.11-1.51.09a8.44,8.44,0,0,1,1.48-.23l-3.05-6.86c-2.7,1.64-3.12-.21-1.95-2.56l5.6,12.58a9.43,9.43,0,0,1-2.68,1.46c-13.94,5.9-21.24,2.88-22.4,1.61l10.58-3.17c-6.39-3.07-17.23-.47-29,3.68s-24.58,9.82-35.31,12.51c2.42-2.83,4.87-5.61,7.33-8.43Q309.26,440.48,299,446.1c-5.09-.22-9.29-2.64,1-6.58-13.86,1.24-13.5,4.83-21.89,6.26l2,3.93a43.44,43.44,0,0,1,4.67-2.3c1.53-.49,1.16.16.2,1.21l11.28-10.92c-1.63,2.89,4.74,1.93-3.43,7,24.45-14.08,33.08-31,44.33-33.67l-1.63,1.73c14.81-12.6,14.87-14.08,13.71-15.15-.58-.54-1.46-1-1-2.64a17,17,0,0,1,1.88-3.61c.51-.83,1.13-1.77,1.78-2.88a24.8,24.8,0,0,0,1.9-3.79,12.08,12.08,0,0,0,3.75-2.2,9.46,9.46,0,0,0,2.72-4.17l.29-.87-2.27-.18-12.67-1L344.27,382c-3.69,1.57-11,4.65-10.46,2.36-12.14,9.21,3.15.72-3.41,7.09C311.19,396,283.17,416,276.12,411.24c-4.76,6.11,17.82-5.46.25,5.53-3.6-1.85-7.41-.33-12.17,1.48a31.28,31.28,0,0,1-7.83,2.12,12.94,12.94,0,0,1-4.2-.28,9.61,9.61,0,0,1-3.73-2.06l-.3,3.38a46.93,46.93,0,0,1,8.57-4.64c-1,2.78-4.42,5.77-6.56,7.67l.81-9,.9.38a.73.73,0,0,0,.52,0c.09-.08.1-.23,0-.46s-.16-.63-.35-1l-1,11.49c1.11-.37,2.78-1,5-1.92,5.06-11.58,29.4-17.74,41-27-2.43-4.93,25.65-19.77,45.41-35.08-.18,1.45,14.84-7.49,31.24-17.25L365.08,332a334,334,0,0,1-29.3,17.19l.09-1.12c-.21,1.74-1.66,3.76-3.95,6a68.15,68.15,0,0,1-9,6.92c-7.18,4.8-16.21,9.59-23.68,13.92-.86-3.25,1.35-5.75,8.83-11.34l-7.09,3.7-7.16,3.58c-2.63,3.23-6.73,6.29-16,11.1.69-1.78,1.36-3.6,2-5.4-9.65,4.45-19.1,9.65-29.62,14.44a132.38,132.38,0,0,1-16.52,6.44,71.13,71.13,0,0,1-18.36,3.27c-.22,1,1,2,2.67,3a43.87,43.87,0,0,1,4.94,2.92c1.24,1,1.67,2.17-.05,3.62s-5.61,3.22-13.26,4.42a4.22,4.22,0,0,1-.78-3.66c.48-1.3,2-2.44,5.72-3.31-1.2.26-3.35,1-5.86,1.39a27.65,27.65,0,0,1-3.93.42,18.64,18.64,0,0,1-3.92-.33A82,82,0,0,0,212,405.22a33.19,33.19,0,0,0-6.17.2,6.62,6.62,0,0,0-2.63,1.07c-1.26.84-2.31,2-7.18,1.35.19-1.15-.82-1.85-2-2.4l1.86,9.48c2.11-.49,4.4-1.54,4.35.14a21.56,21.56,0,0,1-3.26,1.73l-2.64-13.48c2.54.59,5.82,1.3,8.2.52a48,48,0,0,1-8.1-1.25l2.9,14.84c8.11-3.78,16.23-6.89,20-7.17-1.72-.95-2-3.45,5.08-8,18.72-11.16,8.24-.68,20-5.76,3.52-4.44,16.61-9.6,14.69-13.61,5.53-3.19,7.59-2,10.32-2.21,8.76-7.37,45.24-27,31.88-24.69l-2.65,1.19c.42-.35,1-.67,1.49-1.09l-.08,0,.08,0c27.69-20.89,62.48-34.55,91.92-52.57L383.3,292c-2.18,1.35-4.29,2.71-6.37,4.09l-.71-1.3c-17.85,12.62-41.59,24.87-53.9,34.92-5.71,3-14.77,4.61-13.12,1.8-14.3,8.54-15.24,11-38,19.17,7-4.78,5.44-4.67,4.75-4.56-.34.06-.47.11.78-.44s3.9-1.72,9.08-4.16c-5,2.11-9.08,3.64-12.7,5s-6.77,2.55-9.92,3.87c-6.27,2.66-12.44,6-22.2,12.56,2.83-3.34-1.37-2.78-7.38-.75a128.49,128.49,0,0,0-18.38,7.94c5-1.1,10-2.29,15-3.45-5.19,2.54-10.13,4.75-15,6.71s-9.62,3.77-14.43,5.56l3.23-6.72q-3.89,1-7.59,2.17l-1.82.59-1.58.49c-1,.31-1.93.57-2.72.77a20.77,20.77,0,0,1-3.19.62l-.13,0h0s0,0,0,0l0,.34c0,.17,0,.34,0,.51s0,.35-.07.53-.07.38-.08.47a6.62,6.62,0,0,1-.44,1.66l2.13,26.38c13.47-8,25.17-16.93,36.75-24.66s23-14.25,36.16-17.45c4.25-4.49-1.32-2-7.06.58s-11.66,5-8.09.64c18.15-9.62,40.22-14.55,45.77-17.91,12.8-6.16,17.46-11.21,22.15-16.42s9.46-10.6,22.39-17.78c-2.72.36-6.05-.42-2.83-4.89l30.06-41.61-34.64,31.86c-1.88,1.73-5.94,4-12.92,6.91-9.86,2.93-16.42,3.32-19.1,2.18s-1.41-3.77,4.53-6.63c4.66-1.76,7.12-2,7.11-1.36,6.13-2.76,14.28-6.23,5.86-5.48l-2,2.54c-5.18.75-14.52,3.54-21.85,5.63s-12.71,3.4-10.07.83c-7.09,3.56-8.37,4.89-6.53,4.84s6.87-1.36,12.49-2.95A229.36,229.36,0,0,0,254.2,317c-9.7,4.09-19.38,8.43-32.25,13.34,4.39-.91,8.89-.67,4.94,1.11-14.54,5.66-19.94,8.71-22.62,10.81s-2.61,3.44-6,6.11l8.66,15.1a27.49,27.49,0,0,1,3.12-2.8c.73-.58,1.56-1.21,2.52-1.91s2.08-1.41,3.33-2.21c3.52-1.36,5.24-1.43,6.11-1.14s.94,1,1.23,1.43.81.51,2.6-.43c.89-.48,2.11-1.19,3.81-2.22l6.62-4.19c3.75-1.45,6-1.94,7.1-1.88s1.12.71.5,1.65c-1.26,1.85-4.92,5-7.36,7.06,9.6-7,20-11.22,29.48-14.21s18.13-4.8,24.66-7.09c-3.76,2-7.51,4.06-11.21,6.13a143,143,0,0,1,18.41-8.32l-8.11-.62c7.2-2.21,13.18-4.51,13.58-3.08,6.44-5-7.74-3.36,5.59-12,10.12-2,28.18-12.95,33.16-9.81-30.41,10,5,3.16-20,13.61a104.58,104.58,0,0,1,18-6.84c1.26.07-.66,1.3-2.5,2.3,30.06-7.07,11.19-10.05,40.82-21.36-1.94,2.72,2.94,2.67,7.63,1.6L371.32,261a25.13,25.13,0,0,0-5.59,2.1c2.94-1.23,4.87-1.74,5.79-1.63l14.27,35.32c-1.35,0-1.5-.69-.69-1.81L372.27,263.2c-.93,1.82-4.42,4.94-9.18,8a109.22,109.22,0,0,0-11.43,4.09l-1.06.46-.5.23-.4.19c-.27.15-.53.31-.77.47-.48.31-.92.64-1.35,1-1.66,1.34-3.24,2.9-5.74,3.76,1.8-.36,3.74-.8,5.83-1.3-.85,1.78-2.91,3.27-5.87,4.81s-6.7,3.17-11.55,5.45c1.37-2.76,8.65-4.87,6.44-5a22.92,22.92,0,0,1-8.21,4.49,11.49,11.49,0,0,1-5.68.3,15,15,0,0,0-4-.83,11.36,11.36,0,0,0-3.12.66,55.15,55.15,0,0,0-5.62,2.41c.14-1.23,4.1-3.94,7.69-6.45s7-4.86,7.9-5.94c-4.37,2.28-6.7,3.07-7.29,3s.36-1,1.68-2.09a25.91,25.91,0,0,0,3.14-2.61c.09-.22-.18-.26-1.11-.08s-2.54.58-5,1c-4.51,2.39-7.37,4.07-9.61,5.32a48.91,48.91,0,0,1-5.78,2.87,35.93,35.93,0,0,1-7.34,2.07c-.81.14-1.68.27-2.6.36l-2,.21-4.2.41a3.31,3.31,0,0,0,0,1.17,1.81,1.81,0,0,0,.2.65,10.79,10.79,0,0,0,1.74.43,21.38,21.38,0,0,0,7.69-.57c2.54-.56,4.95-1.36,7.29-2.07s4.57-1.46,6.72-2.2c-2.6,1.18-5.31,2.38-8.15,3.59s-5.8,2.4-8.87,3.63a132.8,132.8,0,0,1-20,6.59c1.78.44,4.42,0,7.22-.68s5.79-1.68,8.52-2.52c5.46-1.75,9.76-3.22,10.53-3-4.4,2.05-7.7,3.46-10.13,4.5s-4,1.75-5.26,2.39c-2.44,1.28-3.59,2.33-7.37,5.43,2.26-2.59,1.69-3.22-1.08-2.87s-7.66,2-13.32,3a30.26,30.26,0,0,1-8.43.48,15.47,15.47,0,0,1-1.87-.36,7,7,0,0,1-.85-.27c-.25-.1-.64-.2-.54-.33a3.16,3.16,0,0,1,.37-1.64c1.1-2.27,5-4.9,12.44-8.48l43.15-15.89,3.27-1.49,1.82-.84,1.63-.79c1-.49,1.8-.91,2.47-1.28a12.26,12.26,0,0,0,2.53-1.72c.89-.89.68-1.5,1-2.47s1.18-2.27,3.5-4.12a60.37,60.37,0,0,1,11-6.59q-4.09,1.59-8.82,3.57c-2.84-.34.31-2.4,4.21-4.61,2-1.11,4.11-2.26,6-3.4a29,29,0,0,0,4.93-3.47c1.35.92,3.34.89,5.25.74a39.42,39.42,0,0,1,5.41-.34c-.55-.44.18-1.17,1.5-2.18l111.61-85.73-125,58.83c-4,1.88-9.62,4.28-14.29,6.89s-8.38,5.41-8.72,7.81c-6,1.21-11.95,2.53-17.95,3.84a99.86,99.86,0,0,0-17.73,9.19c-2.3,1.52-4.36,3-6.29,4.52s-3.7,3-5.47,4.55c-3.55,3-7,6-11.34,9.19-2.16,1.58-4.54,3.15-7.24,4.78s-5.7,3.32-9.16,5c3.34-3.62,1.67-4.23,1.3-5.41s.55-3,9.24-8.85c-9.21,4.8-17.64,8.81-16.81,10.67-3.09.66-8.92,5-15.11,9.46-3.1,2.25-6.3,4.51-9.33,6.37a30.1,30.1,0,0,1-8.27,3.88c-3.13,3.29-2.8,6.69-12.92,12.28-1.39.12-.7-1.29-.7-1.29.69,1.28-14.58,10.88-4.22,8.59-13.87,3.48-29.94,12.59-45.9,22.36L147,352.07a131.66,131.66,0,0,1,26.15-21.6c9.18-5.76,18.35-9.74,26.12-11.29,9.45-5.51,20.34-11.28,31-17s21.18-11.11,30.27-15.64c-.79,1.36.58,1.35-3,2.75,26.41-9.75,11.78-15.2,41.87-26.24,16.75-2.71-14.15,9.64-4.21,6.89,6.82,5.72,25.9-10.42,44.72-18.15l-10.21-21.52c-1.85.77-3.69,1.45-5.51,2a45.22,45.22,0,0,1-5.44,1.26l4.35-2.6c-7.87,1.8-16.41,6.44-26.32,11.75S275.74,254,263,258.59c0,0,.9-1.28-.39-1.43-7.7,5.72-19.58,12.22-32.2,19.39-6.31,3.6-12.79,7.4-19,11.32s-12.13,8-17.4,12c4.71-7.76,9.12-8.2,2.67-8.81-4.95,3.55-3.32,4.37-2.94,6.05.2.83.1,1.9-1.21,3.67s-3.82,4.18-8.27,8c-1.35.6-3,1.38-4.71,2.35s-3.59,2-5.42,3.14-3.69,2.22-5.39,3.26a38.66,38.66,0,0,1-4.75,2.52l10.51,13.18c2.66-.7,4.38-.71,5.4-.12l-4,2.5L101.71,382,162,318.19a176,176,0,0,1,13.32-12.76c-5.54,1.6-10.64,5.93-15.06,11.11L91.08,397.65l86.09-59.95c3.33-2.32,6.58-4.89,9.73-7.25,1.57-1.18,3.12-2.31,4.64-3.33a48.09,48.09,0,0,1,4.4-2.78v2.78a154.52,154.52,0,0,0,16.2-12.32c4.07-3.59,7.26-6.67,10.44-9.86s6.42-6.39,10.73-10.09,9.58-8,16.88-13.25l-4,.8c12.25-16.43,15.18-7.24,28.18-22.51l8.29,1.16,9.36-9c3.79-3.6,8.14-7.75,12.76-12.06s9.54-8.76,14.45-13c2.46-2.11,4.92-4.18,7.32-6.18s4.76-3.91,7.08-5.63a114,114,0,0,1-8.16,9.32c-3.26,3.39-7,7-10.75,10.66-7.6,7.31-15.61,14.86-21.51,20.91,5.12-3.79,13.7-10.44,21.52-16.72S329.57,227,331.41,223.9c-3.84,3.45-8.25,8.31-12.87,10.57,9.9-12.86,25.37-26.8,47-40,.39,2.19,2.52,2.55,5.84,1.67a38.51,38.51,0,0,0,5.81-2.16c2.22-.94,4.69-2,7.33-3.36s5.45-2.75,8.38-4.3l9.19-4.51,4.71-2.32,1.19-.58.59-.29.29-.12a8.8,8.8,0,0,1,1.14-.36,3.35,3.35,0,0,1,.85-.12s.1,0,.1,0,0,.28,0-.51c0-.55-.06-1,0-1.54,0-.25,0-.52,0-.77s0-.44,0-.67,0-.45.08-.67l.06-.34,0-.28a6.26,6.26,0,0,1,.26-1.1,3.71,3.71,0,0,1,.26-.82,3.2,3.2,0,0,0,.14-.31,1.2,1.2,0,0,1,.13-.25c.34-.59.41-.37-.26-.07l-5.47-9.58c-6.29,7.19-13.31,12.34-18.46,13.71-6.9,7.79-15.17,14.73-24.09,21.37-4.46,3.32-9.12,6.6-13.84,9.87s-9.51,6.51-14.36,9.76c-9.71,6.51-19.67,13.06-29.84,19.95-5.08,3.45-10.23,7-15.39,10.64s-10.12,7.16-15.07,10.43c4.76-.42,6.52-.29,6.43.49s-1.93,2.06-4.16,3.54a46.37,46.37,0,0,0-6.44,4.68c-1.62,1.59-2.32,3.26-.61,5-7,4.09-11.27,5.37-13.28,5.82l8.39,12.89a6.08,6.08,0,0,1,1.66-1.31l28.6-24.37c7.81-4.87-6.16,10.11-3.87,10.62,18.21-19.75,10.35-5.92,23.88-17.69-2,.23-1.92-1.4,0-4.57l25.14-42.13-40.27,6.92c-1.28.22-2.9.4-4.8.53l-6.39.57c-4.67.49-10.08,1.17-15.64,2.13a98.46,98.46,0,0,1,26.65,1.36l38,7.41L312.3,248.86l-.26.21.18-.28,16-29.54-27.82,2.12a240.08,240.08,0,0,0-25.51,3.55c-6.22,1.1-10.93,1.78-15.69,2.58a62.73,62.73,0,0,0-15.12,4.38c-1.42.62-2.9,1.32-4.42,2.15s-3.13,1.75-4.78,2.82A90.15,90.15,0,0,0,224.16,245c3-3.17,6.16-6.37,9.49-9.48-3.61,2.55-8.5,5.92-13.67,9.7s-10.84,8-16.4,12.23-11.1,8.37-16.27,12.06-10,7-14.15,9.89l24.9,22.46c.59-4.37,1.32-8.22,1.48-11.5,1.19-1,2.71-2,3.68-1.92.47,0,.77.34.75,1a8.56,8.56,0,0,1-.92,3.3,151.43,151.43,0,0,1,18.09-24.86c3.71-4.25,7.71-8.52,11.89-12.76s8.55-8.49,12.86-12.59c17.39-16.37,35.37-30.7,51.27-39l-1.57,3.82c6.6-5.39,9.84-11.92,20-16,.06,1.08-1.62,3.78,1.75,1.68,2-1.9,7.65-7.24,14.22-12.4l-14.89-28.43a91.66,91.66,0,0,1-14.63,6.24c2.72-2.11,5.49-4.12,8.25-6.19-21.95,7.5-37.49,16.44-51.59,25.74S231.92,197,215.63,207.25c-.81-1.46-3.42-1.51-7.16-.65a62.11,62.11,0,0,0-6.37,1.93c-2.34.84-4.85,1.9-7.48,3.05-5.26,2.27-10.84,5.15-16.15,7.94s-10.24,5.66-14.17,8v-1.13a362.2,362.2,0,0,0-29.67,21.3L167,271.51a12.7,12.7,0,0,1,2.3-4.88,54.42,54.42,0,0,1,6.24-7.17c1.31-1.3,2.73-2.65,4.21-4l4.53-4.26,9-8.49c12.06-11.31,24.29-22.63,38.37-34.39,16.92-7.37,43.49-26.55,71.51-45.45l-25.25-26C271.41,144.94,264.56,153,256.8,160a187.18,187.18,0,0,1-23.27,18.59c6.15-3.59,2.48,4.79-3.86,10.4a33.41,33.41,0,0,0-3.66,2.58c-1.25,1-2.56,2-3.84,3.15-2.57,2.22-5.09,4.61-7.41,6.62-4.7,4-8.42,6.56-9.42,3.56l3.34-2.2a23.52,23.52,0,0,0-9,2.4,89.22,89.22,0,0,0-11,6c-3.92,2.43-8,5.16-12,7.94s-8.11,5.6-12,8.19l1.95,8.27c-18,6.92-37.72,20.41-55.42,36.68l21,26.46c14.81-11.18,28.46-23.49,40.23-33.94s21.73-19,29.85-22.62c7.11-9.82,17.26-20.58,23.54-30.78l2.78,3.28c3.52-3.79,6.78-7.28,9.77-10.72,1.5-1.71,3-3.36,4.41-5l4.18-5c5.51-6.59,10.65-13.3,16.38-21.2L368.17,27.9,233.49,145.72c-6.53,5.71-15.06,13.46-26,23.27l4.06-7.47c-8.42,7.07-11.72,13.75-14.92,20.44s-6.29,13.25-14.3,19.42c-2.88-.45-5.77-1-8.62-1.5-14.82,11-31,19.68-47.27,27.23l22.83,28.06c4.79-5.47,11.32-10.66,18.67-16.31,3.66-2.81,7.57-5.8,11.42-9s7.56-6.42,11.18-9.82c0,1.12.12,3.28-4.92,7.09,15.17-10.34,60.76-37,50.32-40.33,3.61,4.39,33.36-22.5,49.23-36.57l-.31,5.3c5.79-7.28,8.59-11.29,12.64-15.59l-14.09-18.24C280.31,126,276,130.64,267,139.05c-4.86,3.3-6.07.68.58-3.44-8.18,5.36-10.5,8.49-13.23,12s-5.87,7.29-15.84,13.7l5.24-7.54c-7.93,6.08-11.41,9.11-13.72,11.8s-3.5,5-6.95,9.6c-4.51,4.49-12.3,10-19.55,14.12s-13.69,6.4-15.81,5.44c-.44,1.63-2.4,4.42-5.66,7.1a28.15,28.15,0,0,1-5.77,3.64,24.15,24.15,0,0,1-7.16,2.06c-.82-.53-.37-1.24.44-1.91a27.89,27.89,0,0,1,2.78-1.81,63.58,63.58,0,0,1-7.71,1.15c-.58,0-1.22.13-1.72.14s-1,0-1.52,0c-1,0-2,0-3-.08a39.07,39.07,0,0,1-11-2.3c-3.42-1.35-5.51-2.47-7.49-4.42a10.27,10.27,0,0,1-3.18-7.25,9.87,9.87,0,0,1,2.79-6.83,3.88,3.88,0,0,0,2.55-.2,5.06,5.06,0,0,0,.69-.39,8.9,8.9,0,0,0-.56.88,7.37,7.37,0,0,0-.48.87,13.17,13.17,0,0,0-.75,1.78,11.59,11.59,0,0,0-.53,3.64,10.11,10.11,0,0,0,2,5.67,14.1,14.1,0,0,0,1.68,1.93c.3.25.56.53.86.74a10.32,10.32,0,0,0,.92.71,26.64,26.64,0,0,0,3.43,2.08c.77.43,1.11.58.82.54.36-.89-.2-1.93-.84-3a12.63,12.63,0,0,1-1.6-3.25,2.62,2.62,0,0,1,.91-2.13,10.1,10.1,0,0,1,1.2-.9,6.19,6.19,0,0,1,2.4-.6l-1.16-.15a2,2,0,0,0-.52-.05,1.29,1.29,0,0,0-.31.08,4,4,0,0,1-1.49.1,4.64,4.64,0,0,1-3.28-2.07,5.52,5.52,0,0,1-.89-3.44,6.53,6.53,0,0,1,.11-1l.11-.5.06-.25L145,185a18.34,18.34,0,0,1,1.75-3.09,33.78,33.78,0,0,1,5.66-6.18,50.69,50.69,0,0,1,7.23-5.14,10.76,10.76,0,0,1,2.94-.45c-.53.54-1,1.05-1.45,1.56.94-.56,2-1.22,2.91-1.87s1.86-1.33,2.73-2c1.73-1.37,3.32-2.8,4.8-4.23,5.85-3.34,9.6-5.39,14.9-9,1.93.61,7.22-2.55,13.15-6.51,3-2,6.09-4.15,9-6.22s5.72-3.91,7.95-5.33c-3-3.06,9-10-3.83-5.89,1.58-.67-1.41,1.53-7.22,5.57A38.36,38.36,0,0,0,202,139.1c.11-.21.24-.46.4-.71-5.76,4-13.26,9.24-21.79,15.24,5.73-6.58,12-13.14,23.14-17.74,3.06-5.28,6.6-10.94,8.78-13.87,7.75-1.53,18-5.24,27-8.21s16.72-5.26,19.27-4.56A305.47,305.47,0,0,1,286.1,93.92L268.87,68.68c-8.21,8.81-17.16,17.09-25.24,24.53l-3,2.77c-1,.92-1.92,1.83-2.88,2.69-1.91,1.73-3.71,3.45-5.39,5.14s-3.31,3.24-4.74,4.84a59,59,0,0,0-3.89,4.63c-7.42,5.42-10.19,3.28-13.77,3.7,1-.79,2.21-1.51,3.33-2.29l3.28-2.26a22.89,22.89,0,0,0,4.83-4c-1.8,1.35-3.88,2.76-6.12,4.25-1.13.73-2.28,1.53-3.5,2.25l-3.76,2.19c-2.55,1.49-5.17,3-7.87,4.39l-4,2.12c-1.32.71-2.63,1.42-3.94,2-2.61,1.3-5.11,2.58-7.41,3.83s-4.48,2.29-6.32,3.38c-3.67,2.23-6.25,4.06-6.83,5.73a54,54,0,0,1-6.08,1.11,3.52,3.52,0,0,1-2.25-.25c-.52-.45.61-1.32,1.49-2.07,1.74-1.56,2.71-2-12.15,2.79,1.22-.87,2.39-1.87,3.58-2.8-12.53,1.76-23.77,3.71-34.53,5.8l14.56,22.21a53.69,53.69,0,0,1,3.32-4.85c1.27-1.6,2.69-3.2,4.21-4.8s3.22-3.17,5-4.75,3.64-3.14,5.6-4.7c3.9-3.13,8.12-6.25,12.45-9.47s8.66-6.41,13.13-9.59c17.86-12.73,37.59-25.06,64.25-35.1-4.6,1.82-6.89,2.76-8.22,2.45,15.51-7.63,30.88-16,46.2-24.68L272.8,53.82c-25.78,15.39-51.71,31.28-78.1,46s-53.23,28.28-80.57,39l13.23,13.49a34.05,34.05,0,0,1,6.48-7.22c3.41-3.1,6.49-5.48,9-7.63a76.32,76.32,0,0,0,6.28-5.9c1.75-1.86,3.29-3.7,5-5.71s3.52-4.16,6-6.68l6.61.93,16.41-17.77C208.39,80.05,237,78.34,267.71,48.22l-6.23.62c3.41-2.19,7.74-5.26,12.28-8.53l-6.44-11.42c-7,3.32-14.41,7.07-19.88,9.76s-9.16,4.13-8.94,2.53c-1.16,1.23-2.93,5.22-9,6.82l-1.59-1.81q-15.52,11.34-29.8,24c-6.2,3.94-9.39,5.34-11.26,5.57s-2.45-.78-3.33-1.48-2.1-1.14-5.26.3a48.61,48.61,0,0,0-6.36,3.79c-2.7,1.93-6.13,4.47-10.29,8.06-1.47,1.43-3,3-4.62,4.85L154.61,94l-1.21,1.43L152.12,97A60.26,60.26,0,0,0,143,111.75a31.52,31.52,0,0,0-2.14,8,20.12,20.12,0,0,0,.11,5.87c.64,3,1.34,3.7,1.77,2a18.87,18.87,0,0,1,1.3-6.4,22.21,22.21,0,0,1,1.47-3.12,20.74,20.74,0,0,1,1.81-2.62c2.52-3.13,5.11-4.58,6.15-4.05a38,38,0,0,0-3.74,6.69,22,22,0,0,0-1.76,7.47c.82.49,1.63,1.08,2.46,1.64a22.69,22.69,0,0,0,2.56,1.5c1.68.89,3.32,1.54,5,1a3.39,3.39,0,0,0,.62-.28,3.9,3.9,0,0,1,.61-.31,8.55,8.55,0,0,0,1.17-.59c.39-.23.82-.49,1.23-.77s.85-.57,1.35-.87a3.58,3.58,0,0,1,.71-.4l.35-.18.4-.21c.13-.08.26-.16.4-.23l.46-.28c.27-.18.67-.43,1-.66l6.5-4.53c.48-.72,1-1.45,1.54-2.2l1.8-2.36c1.22-1.57,2.41-3.18,3.66-4.74l3.76-4.68c1.26-1.56,2.56-3.08,3.85-4.62,2.66-.78,5.38-1.47,8.05-2.17l-3.84,3.14-3.76,3.2c-2.54,2.12-5,4.36-7.43,6.53,10.48-5,14.16-11.52,19.35-18a11.75,11.75,0,0,0,4.48-.54,28.67,28.67,0,0,0,5.65-2.36c4.91-6.26,10-12.5,15.43-18.53,1.92.39.44,3,.25,4.51-.09.77.13,1.3,1.23,1.19s3.08-.87,6.57-2.55c3.78-4.14.8-4.11-1.4-4.4-1.09-.14-2-.37-1.71-1.27s1.71-2.51,5.39-5.23c5.72-1.55,8.2-1.2,10.5-1.7s4.46-1.69,9.73-6c2.49.76.48,3-3.74,6.2,6.4-5.17,17-10.22,24.3-14.53L261,22c-3.11,2.7-5.46,5.16-6.43,7.25C242.29,33,221.09,53.74,218.31,47.62c-2.27,3.51-14.82,16.62-23.94,23.29,12.43-18.27-35,23.73-35.35,13.65-3.65,6.26-12.22,13.45-22.39,21.09-5.1,3.85-11.12,8.1-17.15,13.59a77.77,77.77,0,0,0-8.76,9.33,55.5,55.5,0,0,0-7.11,11.65L82.47,187.67l43.24-24.92c3.64-2.1,7.1-4.22,10.26-6.37-1.12,1.18-3.31,3.52-5.63,4.24,14-6.18,19-6.29,28.43-9.51-.45-3.08,4.53-7.59,10.79-12.53s13.83-10.27,18.65-14.89c19.26-3.77-6.86,11.44.88,13.51-1.53-1.89,5.16-6.75,11.26-11.25s11.59-8.62,7.84-8.84c14.31-3.77,11.67-4.45,20.54-3.75-1.37-7.66,11.12-7.61,19.25-17.45,9.93-3.6,12-2.8,13.83-2.75s3.63-.63,12.92-7.41c5.27-1.8,3.85.45,1.11,3.15S269,94.74,269,94.74Zm-129.34,58.4,0-.07c2-1.59,3.8-3,5.38-4.14l3.9-2.88-3.52,2.62C143.88,149.8,142,151.2,139.67,153.14Zm-20.4,51.32a32.22,32.22,0,0,1-2.9-12l0-3.5c.12-1.23.25-2.54.45-3.88s.55-2.71,1-4.08a37.79,37.79,0,0,1,1.53-4.11c1.16-.78,1.8-.4,1.85.79a5.82,5.82,0,0,1-.07,1.05c0,.42-.1.88-.2,1.4-.21,1-.57,2.24-.89,3.73-.06-1-.49-.5-1.14,1.09a21.48,21.48,0,0,0-.85,3.13l-.21,1-.12,1c-.07.73-.15,1.49-.24,2.27A33.13,33.13,0,0,0,119.27,204.46Zm78.8-56.55c-5.52,4.47-7.94,5.16-9.23,5,2.72-2,5.87-4.3,9.95-7.43.08-.24.33-.63.4-.9A6.82,6.82,0,0,1,198.07,147.91Z"/><path class="cls-2" d="M205.55,136.21a29.34,29.34,0,0,1,2.27-1.86c-1.42.48-2.75,1-4.06,1.54-.47.85-.95,1.71-1.35,2.5Z"/><path class="cls-2" d="M299.31,356l.88-.39a8,8,0,0,1-2,.49A7.29,7.29,0,0,1,299.31,356Z"/><polygon class="cls-2" points="169.59 220.85 170.38 221.58 172.46 218.23 169.59 220.85"/><path class="cls-2" d="M320.11,378.84a7.88,7.88,0,0,0,3.45-.64C323.3,378,321.85,378.38,320.11,378.84Z"/><path class="cls-2" d="M327.12,355.34l-13.54,7.19C319.55,359.59,323.78,357.27,327.12,355.34Z"/><path class="cls-2" d="M256.88,399.5a4.59,4.59,0,0,0-.35,2.4,1,1,0,0,1,.16-.06Z"/><path class="cls-2" d="M341.62,311.86c-1.72.7-3.41,1.38-4.95,2.1-5.89,2.67-6.93,3.19-5.27,2.5S337.28,313.9,341.62,311.86Z"/><path class="cls-2" d="M309,310.69c3.1-2.87,6.16-5.68,9.55-8.41C312.54,305.74,307.92,308.55,309,310.69Z"/><path class="cls-2" d="M221.61,323.72s0,0,0-.09c-.8.47-1.51.87-2.32,1.33Z"/><path class="cls-2" d="M324.55,315.06a78.64,78.64,0,0,0,8.82-2.23L325.93,297a78.37,78.37,0,0,0-7.35,5.3c2.47-1.42,5.17-2.94,7.82-4.56L333.1,312A69.3,69.3,0,0,0,324.55,315.06Z"/><path class="cls-2" d="M387.34,434.31l3.91-.57c-.12-.26.07-.53.33-.76Z"/><path class="cls-2" d="M391.58,433l.6-.18-9.95-22.36-2.77,2.64a13.66,13.66,0,0,0,2.86-2.53l9.83,22.1A1.54,1.54,0,0,0,391.58,433Z"/><path class="cls-2" d="M372.68,419.59l6.78-6.51C376.89,415,373.64,417.35,372.68,419.59Z"/><path class="cls-2" d="M272.44,438.73l.07-2A2.05,2.05,0,0,0,272.44,438.73Z"/><path class="cls-2" d="M298.72,418.17c-6.54,4.54-17.86,9.5-26.12,17l-.09,1.6C275.29,431.78,294.27,424.8,298.72,418.17Z"/><path class="cls-2" d="M297.05,399.84,322.84,389c-5.12.62-11.86,1.39-.54-4.41C288.37,395.26,330.44,384.77,297.05,399.84Z"/><path class="cls-2" d="M276.46,411.53c-12.09,9,1.46,1.88,1.3,3.08C284.88,408.1,286.59,406.51,276.46,411.53Z"/><path class="cls-2" d="M303,333.08l-.41-4.11C292.57,334.64,303.12,330.35,303,333.08Z"/><path class="cls-2" d="M201.87,400.67l11.66-2.14,3.66-5.31-7.53,3.71-3.77,1.84C204.67,399.38,203.3,400,201.87,400.67Z"/><path class="cls-2" d="M235.24,382l-4.18,3q8.16-5.37,16.26-10.81Z"/><path class="cls-2" d="M181.3,334.62c-1.76-.77-3.54-1.52-5.31-2.23-2.91,2.37-3.84,4.91-3,5.82S176.57,338.43,181.3,334.62Z"/><path class="cls-2" d="M248.5,286.17c5.39-1.06,16.63-7.55,21.5-14.16C261.65,277.92,252.33,282.57,248.5,286.17Z"/><path class="cls-2" d="M144.23,243.93l6.71-6.7-6.81,5.64c-2.27,1.9-4.52,3.88-6.77,5.81Z"/></g></g><g id="Livello_1" data-name="Livello 1"><path d="M191.31,276.4c-14-.59-16.54,12.06-23.84,18.66-9,8.16-17.39,17.15-27,24.5-8.39,6.4-18.31,1.66-20.34-8.52-1.89-9.51-4.44-19-5.4-28.56-.88-8.74-6.47-11-13.28-12C84.71,268,70.25,253.7,69.72,237.06c-.64-20.27-.42-40.59-.18-60.88.27-23.59.61-47.2,1.6-70.77,1.09-26,9.13-35,33.84-38.1,22.83-2.87,46-3,69-4.12,23.25-1.13,46.5-2.57,69.76-2.79,19.6-.18,39.26,2.33,58.79,1.45,12.15-.55,22.27,1.13,29.59,10.76,3.83,5,7.48,11.29,8.21,17.35,1.06,8.88,8.91,17.54,2,27,5.67,2.66,2.36,13.37,14.75,11.8,21.87-2.78,44.3-.91,66.49-1.4,10.28-.22,18.4,4,24.4,11.55,9.16,11.44,17.94,23.49,17.81,39.13-.16,18.15-.59,36.31-1.53,54.44-.92,17.57-2.85,35.09-3.85,52.66-.21,3.67,2.07,7.41,2.53,11.19,2.71,22.33-21.75,46.83-39.29,47.44-11.23.39-14.3,7.42-13.92,16.54.49,11.62-4.53,20.89-10.55,30-3.35,5.05-7.59,6.31-12.82,2.7-1.4-1-3.11-2.87-4.27-2.6-18,4.21-19.09-13.05-27-21.36-3-3.15-3.68-8.41-6.45-11.88-6.42-8.05-13.33-12.78-25.57-11.57-21.28,2.1-42.9.95-64.37.68-11.63-.15-24,.95-34.73-2.44-29.18-9.16-31.81-14-32.62-44.88C191.14,291.57,191.31,284.21,191.31,276.4Zm-54.82,8.36,3.77.32q9.26-11.25,18.49-22.52c6.52-8,14.89-11.26,25.17-11.38,8.54-.1,17.06-1.55,27.39-2.58-4.1-3.25-6.72-4.85-8.74-7-5.6-6-5.27-13.51-1.31-19.21,2-2.87,10.1-4.59,13.18-2.85,4.05,2.29,7,8.21,8.3,13.13,1.14,4.36-.64,9.48-1.26,15.49,4.77-.39,8.8-.94,12.84-1,21.16-.38,42.33-1.18,63.48-.74,14.61.3,18.85-10.43,20.22-20.28,2.37-17.19,2-34.83,1.93-52.28-.08-21.47-2.28-43-1-64.35.5-8.55-1.21-12.75-7.59-16.9C305.78,89,303,82.2,294,82.83c-21.71,1.52-43.53,1.6-65.31,1.85-30.87.35-61.79-.62-92.59.93-12.8.65-25.47,6-37.9,10-2.45.81-4.79,5.67-5,8.81-.57,8.38.18,16.84.17,25.26q0,51.9-.24,103.81c0,6.5,1.37,10.49,9.22,10.67,8.68.19,17.31,1.93,26,2.89,6.64.73,9.73,2.95,8.5,10.88C135.44,266.71,136.49,275.82,136.49,284.76Zm298,29c1.29-20.14,3-40.57,3.82-61,1-25,1.11-50,1.66-75,.18-7.83-9.91-22-17.68-22.59-23.76-1.74-47.56-2.78-71.36-3.65-1.79-.06-5,3.16-5.28,5.2-.68,4.27-.12,8.79.33,13.17,2.63,25.51,4.18,51-6.41,75.26C337.36,250.26,331,254,330,259c-2.95,14.87-16.18,12.37-24.66,13.76-14.35,2.35-29.41.09-44.17.31-8.32.13-16.72,2.55-24.9,1.86-22.73-1.94-23.83-3.08-24,20.78-.1,17.21,8.84,26.88,25.41,26.14,16-.72,32-1.38,48-1.27,17.12.11,34.24,1,51.35,1.87,5.83.32,13,0,17.08,3.18,7.17,5.52,12.44,13.51,18.53,20.45,3.54,4.05,7.11,8.07,11,12.51,1.85-11.06,2.61-20.13,5.11-28.7,1.22-4.18,5.09-9.79,8.75-10.67C409.05,316.46,421.05,315.61,434.49,313.8Z"/><path d="M206.66,207.86c-.87-6.67-2.47-12.53-2.21-18.31.37-8,1.84-15.75,10.74-20,4.57-2.16,7.89-6.82,12.07-10,6.77-5.07,3.56-9.64-.07-14.64-8.55-11.82-21.84-15.67-32.43-7.67-4.41,3.33-6,10.2-9.44,15.08-2.27,3.23-5.11,7.18-8.45,8.11-1.83.51-6.94-4.19-7.63-7.22-5.43-23.58,11.6-40.52,34.78-39.2,11.33.64,24-.47,33.93,12.14,13.38,17.08,13.46,46.16-6.94,59.33-3.37,2.18-7.07,6.06-7.8,9.71C221.28,205.05,214.79,206.73,206.66,207.86Z"/></g></svg>