<svg xmlns="http://www.w3.org/2000/svg" viewBox="0 0 500 500"><defs><style>.cls-1{opacity:0.51;}.cls-2{fill:#b03634;}</style></defs><title>User</title><g id="Livello_4" data-name="Livello 4"><g class="cls-1"><path class="cls-2" d="M263.65,442.24c-1.29,2.71,1.74,4,7.18-1.13l1-7.19Z"/><path class="cls-2" d="M308.5,417.77c5.31-7.4,10.52-17.06,3.23-17-3.76,9.18-6.65,9-10.35,19.26-5.45,5.16-11.14,7-11.31,4.76-1.26,2.65-9.72,6.46-10.88,11.41,10-3.13,19.65-10.76,27.65-21.32C309.68,414,308.41,416.66,308.5,417.77Z"/><path class="cls-2" d="M265.83,336.73l-4.31,2A24.57,24.57,0,0,0,265.83,336.73Z"/><path class="cls-2" d="M257.33,293c3.22-1.34,4.43-2.3,4.44-2.78C258.83,291.62,256.46,292.86,257.33,293Z"/><path class="cls-2" d="M183.17,319.34c1.59-.61,2.89-1.18,4.31-1.76A9.31,9.31,0,0,0,183.17,319.34Z"/><path class="cls-2" d="M265.83,336.73l11.1-5C276.79,329.87,271,333.93,265.83,336.73Z"/><path class="cls-2" d="M272.73,425.73a31.32,31.32,0,0,0,5.86-3c-1.91.76-3.77,1.47-5.7,2.16A4,4,0,0,1,272.73,425.73Z"/><path class="cls-2" d="M248.75,354.11l3.19-1.61a17.84,17.84,0,0,0,1.69-3.17Q251.23,351.76,248.75,354.11Z"/><path class="cls-2" d="M261.1,378c2.94-1.84,1.49-6,1.51-8.25a13,13,0,0,1-4.5,6.71C258.53,377.11,259.45,377.63,261.1,378Z"/><path class="cls-2" d="M247.53,422.46l-3,3.16C245.3,424.78,246.66,423.46,247.53,422.46Z"/><path class="cls-2" d="M192,388.23a3.24,3.24,0,0,0,2,.55C193.69,388.33,193,388.19,192,388.23Z"/><path class="cls-2" d="M188,60.89c.08.31.33.36.45.59C189,60.61,189,60.21,188,60.89Z"/><path class="cls-2" d="M130.41,135.83a18.78,18.78,0,0,1-.1-2.6,8.41,8.41,0,0,0-2.26-1c.36.65.72,1.28,1.09,1.89S130,135.28,130.41,135.83Z"/><path class="cls-2" d="M297.31,304.46c-.27.06-.36.1-.61.17C293.44,306.48,295.36,305.6,297.31,304.46Z"/><path class="cls-2" d="M243.65,279.57c-12.25,8.95,11.48-21.54-5.82-7.12C240.41,271.91,230.11,292.16,243.65,279.57Z"/><path class="cls-2" d="M268.83,426.29c-1.95.61-3.91,1.25-5.91,1.8A42.63,42.63,0,0,0,268.83,426.29Z"/><path class="cls-2" d="M237.83,272.45l0,0L236,273.94Z"/><path class="cls-2" d="M283.15,221.14a9.72,9.72,0,0,0,3.86.33C286.74,221.12,285.83,220.94,283.15,221.14Z"/><path class="cls-2" d="M280.53,277.2l-5.67,1.71A42.84,42.84,0,0,0,280.53,277.2Z"/><path class="cls-2" d="M173,286.68c-3,1.43-4.23,1.53-7.75,4.36a6.11,6.11,0,0,0,1.43-.28C167.78,289.42,169.47,288.05,173,286.68Z"/><path class="cls-2" d="M184.52,303.41c-.76,0-1.67.25-2.5.37l-3.48,2.12Z"/><path class="cls-2" d="M126.59,124.12a18.4,18.4,0,0,1,7.25,0c-1.65-.75,1.51-3.86,2.61-5.24.55-.68.58-.94-.76-.25-.67.34-1.68.92-3.15,1.8S129.19,122.48,126.59,124.12Z"/><path class="cls-2" d="M272,423.47c-.43,1.23-1.35,2-3.18,2.82,1.41-.46,2.75-.94,4.06-1.42C273.08,424.16,273,423.57,272,423.47Z"/><path class="cls-2" d="M185.85,317.83Q176.91,323,168,328.19C173.09,325.46,179.58,321.68,185.85,317.83Z"/><path class="cls-2" d="M120.19,244.86l3.13-3.42A11.28,11.28,0,0,0,120.19,244.86Z"/><path class="cls-2" d="M129.3,298.43a92,92,0,0,0,12.35-5.17,10.28,10.28,0,0,0,1.62-2.36Q136.28,294.31,129.3,298.43Z"/><path class="cls-2" d="M133.9,124.16c-.05,0-.06,0-.06,0S133.85,124.17,133.9,124.16Z"/><path class="cls-2" d="M234.32,107.87c17.16-10.55,5.14-9.6,7.06-14.55,2.75-2,5-3.49,6.71-4.56L232.17,63.15c-10.78,6.27-5.94-1.94-13.12-.43-11.89,8.93-19,19.17-28.49,24.71-1.18-.35-3.18.48-1.63-1.8-11.08,11.88-39.58,24.28-52.29,38.47a5.43,5.43,0,0,1-2.74.06c4,.84,5.81,3,6.34,5a93.18,93.18,0,0,0-9.63,7.47c-2.76,2.22-5.11,3.78-7.61,3.33,4.78-3.21,4.4-4.59,6-7-2.46,2.17-4.92,4.42-7.31,6.8-2.6.26-3.3-.1-2.87-1s2-2.28,3.79-3.69c3.65-2.84,8.25-5.75,7.23-7.39a122,122,0,0,0-14.74,12.73,69.83,69.83,0,0,0-12.34,16.93l-9.23,18.38,18.24-5.17c3.34-1,6.55-1.78,9.59-2.44a73.79,73.79,0,0,1,8.52-1.71c1.42,1.44-1.85,3-6,4.39-2.09.74-4.44,1.25-6.51,1.79s-3.9,1-5,1.38l-26.52,9.81,14-28.22c1-2,.94-2.56-1-.62l-8.35,8.22,22.14,12a15.68,15.68,0,0,0,4.32.46l-4.16.44-32.16,3.34L98,154.46A63.32,63.32,0,0,1,114,138.93c-2.51.76-4.23,1.31-5.33,1.59s-1.59.25-1.65,0c-.11-.52,1.48-2,3.13-3.33s3.32-2.65,3.36-3.34-1.49-1-6.62.57A65.56,65.56,0,0,0,97.94,143a55.2,55.2,0,0,0-5.66,8L67.47,192.82l46.4-10.16c4.21-.92,7.83-1.76,11.2-2.75s6.53-2,9.85-3.09c1.66-.57,3.36-1.14,5.16-1.72s3.71-1.14,5.73-1.84l14.26-4.54c2.74-2.51,1.81-3.28.91-4.07s-1.77-1.52.83-4.1c2.33-1.3,4.5-2.44,6.53-3.44s3.88-2,5.63-2.77,3.4-1.47,4.92-2.09,2.93-1.16,4.28-1.6a62.66,62.66,0,0,1,13.27-2.7,50.11,50.11,0,0,0,5.55-.82,30.82,30.82,0,0,0,5.73-1.77,31.59,31.59,0,0,0,6.42-3.88,39.81,39.81,0,0,0,3.63-3c1.25-1.19,2.55-2.53,3.91-4,2.38-3.75,3.07-7.52,5.66-11.58a35.41,35.41,0,0,1,5.55-6.67,88.46,88.46,0,0,1,10.55-8.31c-.52,3.09-1.08,6.23-1.69,9.4a64.62,64.62,0,0,0,8-8.09,35.48,35.48,0,0,0,3.88-5.72l44.82-84L234.77,77.31c-2.91,2.64-4.23,4.74-7.18,7.08a33.71,33.71,0,0,1-6.07,3.78c-1.33.72-2.88,1.47-4.68,2.27s-3.85,1.67-6.18,2.65c1.7-2.32,6.39-5.44,10.15-7.78s6.62-3.85,4.53-3.15A62,62,0,0,0,219.28,84a26.58,26.58,0,0,0-4,1.9,12,12,0,0,0-4.12,3.81c-1.79,2.65-2.85,5.42-9.15,9.22l-5.27-2.77c-12.74,8.29-25.2,18.07-37.54,28.31L140.69,140l-9.34,7.77-4.71,3.85c-1.67,1.36-3.36,2.73-5.07,4.22.3-1.24,1.4-3.08,1.5-4.16s-.79-1.42-4.66.71c-2.22,2-4.49,4.17-6.78,6.63-.58.58-1.15,1.23-1.72,1.88s-1.14,1.28-1.71,2l-.87,1.07c-.33.42-.65.79-1,1.26-.66.91-1.32,1.83-2,2.75a47,47,0,0,0-5.86,12.1c-.3,1.08-.66,2.15-.87,3.25s-.43,2.21-.59,3.32-.19,2.24-.27,3.37,0,2.25,0,3.38c.15,1.62.35,3.24.57,4.85s.74,3.18,1.22,4.74a39,39,0,0,0,4.31,8.82,44.22,44.22,0,0,0,14.49,13.63c1.49.82,3,1.63,4.53,2.37l2.42,1a21.08,21.08,0,0,0,2.13.8c1.45.47,2.88,1,4.38,1.31l2.23.52c.74.17,1.52.27,2.28.39s1.52.24,2.29.34l2.35.17a40,40,0,0,0,4.78.06l1.2,0,1.09-.09,2.14-.21c1.43-.15,2.81-.41,4.21-.63a73.87,73.87,0,0,0,15.33-4.75,113.19,113.19,0,0,0,12.8-6.55c3.9-2.3,7.47-4.63,10.81-6.84l9.55-6.4q4.65-6.48,9.19-13c2.78-2.2,6.37-2.62,3.92.47,13.13-8.6-1.14-2.66,3.55-8.75,6.61-5.88,10.6-5.57,7.14-.93,9-9.81,21.73-23.32,35-36.75L242.91,126.3c-15.67,12.91-32.37,25.22-45.82,32.08L200.8,154c-19,11.76-14.84,22.16-33.87,31.09l2.72-3c-10.14,6.88-20.32,14.26-30.4,21.7-5,3.7-10.26,7.56-15.48,12A97.9,97.9,0,0,0,109,231.14L72.85,278.86l52.76-28.35c22-11.84,40.71-25.28,57.21-34.72.79-4.72,10.55-12.11,19.43-19.64s17-15,15.13-19.27c2.35-1.58,4.42-2.94,5-3L203.77,158c-7.12,7.35-10.67,10.11-15.16,14.28-2.29,2-4.72,4.51-8.14,7.89-1.7,1.69-3.57,3.68-5.83,5.92s-4.75,4.87-7.73,7.81c-6.74,7.24-5.57,14.84-13.51,24.51l-3.54-3c-1.35,2.57-2.71,5.15-4.14,7.68s-2.82,5.13-4.32,7.63c-3.46.73-6.84,1.49-10.3,2.11-2.56,2.89-5.12,5.8-7.78,8.61,3.66-2.79,8.67-5,9.07-3.55-4.85,5.65-11.73,11.05-18.24,15.28a103.36,103.36,0,0,1-9.26,5.29,55.75,55.75,0,0,1-7,3l23.47,27.92c1.8-.82,2.89-1.06,3.26-.78a395,395,0,0,1,30.58-29.8c.36,2.09-5.12,6.92-8.85,11.34a56.34,56.34,0,0,1,4.71-5.05,18.92,18.92,0,0,1,3-2.44c1.54-.95,2.28-.73,3-.47,1.39.53,2.64,1.27,10-6.76-2.93.83-.37-3.15-.5-4.19a69,69,0,0,0,9.33-4.73c3.58-2.12,7.51-4.63,11.58-7.45s8.29-5.88,12.36-9.11c2-1.6,4.05-3.19,6-4.79s3.8-3.25,5.57-4.82l-.91,4.75c2.56-1.92,5.15-3.81,7.72-5.87s5.14-4.19,7.72-6.34c5.11-4.47,10.27-9,15.25-14.15a234.2,234.2,0,0,0,28.2-34.18L338.55,61.58l-97.73,75.16c-7.28,5.61-14.83,11.4-22.45,17.14,11.61-6.87,12.43-.59,4,6.4L216,159c-3.79,6.66,10.19-5.44.91,6.26-11.37,8-10.82,1.29-5.42-4.85l-12.39,11.7c-1.68-.54,1-3.6.66-5.7-1.82,3.33-8.35,6.86-15,10.9s-13.39,8.6-15.64,13.82l-1.65-.53c-12.48,10.07-21.71,18.16-30.12,25.73L131,222.09c-2.21,2-4.56,4.27-7,6.9a74.31,74.31,0,0,0-7.44,9.3,52.92,52.92,0,0,0-6.39,13.26L89.65,316.77l52.72-42.64c2.19-1.77,5.25-4.2,8.56-6.75-1-1.86.89-4.3,3.71-7.28s6.61-6.38,9.2-10.34c9.27-5.66,19.42-11,30-16.57s21.71-11.26,33-17.67c7.5-5.29,8.29-6.68,7.91-7.56s-1.9-1.2,1.17-4.24c1.51,1.41,8-1,12.77-2.58s7.84-2.41,2.44,1.82c14.17-7.38,23.27-11.68,33.68-16.79L268.31,156.4c-8.6,6.65-18.29,14.34-33.45,27.51,4.51-1.42,8.95-3.8,7.64-1.22-5.61,4.88-14.51,8.87-14.78,6.76l1.33-1.51C215.39,201.28,198,213.56,181,227c-8.55,6.78-17.2,14.19-24.71,23a96.62,96.62,0,0,0-10.13,14.19,77.28,77.28,0,0,0-7,15.82l-13.74,44.57,41.39-20.62A72.58,72.58,0,0,0,187,289.39L185.4,291c10.51-8.85,19.2-17.91,28-25.84,3.39-2.17,4.68-2.67,4.9-2.41s-.65,1.31-1.57,2.52-1.91,2.53-2,3.27.8.8,3.49-.32c7.17-7.08,14.33-11.78,21.09-14.49A40.14,40.14,0,0,1,258,250.77l-12.33-27.65c-9,10.17-17.65,20-25.75,32.84a49.94,49.94,0,0,0-10,7l-50.17,43.66,71-13.28a64.07,64.07,0,0,0,14.95-4.95,98.41,98.41,0,0,0,14.27-8.33c4.52-3.13,8.78-6.49,12.82-9.78s8.08-6.62,12.15-10c8.14-6.7,16.3-13.38,24.18-19.24,3.94-2.92,7.8-5.64,11.56-8.06a114.07,114.07,0,0,1,10.95-6.28l-3.26-.85c5.62-7.7,9.75-5.68,15.61-9.73-2.12-.9-9.51,4.67-5.87-.15,5.52-4.88,11.16-10,16.69-15.6a166.36,166.36,0,0,0,16-18.57l6-8.16-4.21-8.94a25.55,25.55,0,0,0-1.91-3.37,22.67,22.67,0,0,0-2.74-3.21,21.92,21.92,0,0,0-3.32-2.57,20.83,20.83,0,0,0-3.43-1.73c-.55-.22-1.11-.42-1.67-.6s-1-.27-1.52-.4-1-.22-1.51-.3-.88-.12-1.32-.16-.9-.09-1.3-.11l-1.16,0h-1.14l-1,.07a30.45,30.45,0,0,0-6.75,1.35,34.2,34.2,0,0,0-5.46,2.25l-11,5.86-2.77,1.45-2.71,1.54-5.43,3.09L310.85,171l-5.34,3.22-5.35,3.22c-1.79,1.07-3.58,2.15-5.31,3.28l-10.54,6.69c-6.9,4.57-13.87,9.12-20.63,13.83-13.61,9.35-27,18.94-40,28.45l-38.52,28.1c-5.65,4.1-8.75,7.38-10.71,10.33a47.13,47.13,0,0,0-4,8,21.91,21.91,0,0,1-5.8,7.93,44.1,44.1,0,0,1-6.32,4.43c-1.33.78-2.81,1.6-4.46,2.45s-3.52,1.62-5.55,2.48l2.76-4.74,2.67-4.85-3.68,3.13-3.78,3q-3.81,2.94-7.7,5.83l25.77,30.53a102.55,102.55,0,0,1,24.88-22.45c9.71-6.43,20.55-11.86,31.84-16.92s23.09-9.81,34.89-15a307.42,307.42,0,0,0,35-17.57c-2.68,2.58-2.14,4-7.39,6.4,3.77-.5,9-2.59,14.44-5.24l-19-37.7c-12.23,6.15-25.57,15.58-24.76,17.49-8,3.72-3-1.44-8.52-.3-11.66,3.57-24.75,17.81-32.06,17.52-1.23,0,2.48-2.58,4.31-3.83-6.18,5.12-32.66,16.2-24.09,16.48-5,2-9.65,4.23-14.15,6.57s-8.83,4.89-13.1,7.4c-8.55,5-16.67,10.09-25,14.16-3,4.22-9,8.43-15,13.06S115,316,112.5,320.21L48.93,425.48l84.62-80.43c1.67-1.59,2.52-3,2.41-4.48,1.18,3.27,9.75-.55,19.21-6.39s19.81-13.64,24.64-18.46c-2.7,4.07,10.95-4.25,8,.9,12.84-8,24.09-16,20.06-17.71,14-3.59,25.27-11.8,35.53-18.86a105.82,105.82,0,0,1,14.74-9c4.76-2.16,9.38-3.34,14-2.71,10.55-6.31,21.1-12.05,30.27-16.92l-16.29-30.73c-26.59,19.77-51,37.47-75.21,54.45-2.44-6.48,37.57-25.07,32.24-30.08-13.13,9.88-23.5,18.62-33.7,27-5.1,4.17-10.16,8.23-15.5,12.29-2.7,2.06-5.86,4.33-9.26,7.3a45.81,45.81,0,0,0-10,12l-4.2,7.57,5.22,6.78a21.9,21.9,0,0,0,6.87,5.78,25.37,25.37,0,0,0,7.73,2.6,35.75,35.75,0,0,0,6.73.46,57.47,57.47,0,0,0,5.75-.4c5.24-.37,3.91.59.79,1.86a23.19,23.19,0,0,1-3.08,1,37.9,37.9,0,0,1-4,.83,39.33,39.33,0,0,1-4.29.4l-2,0-1.66-.06a39.74,39.74,0,0,0,12.45-.13l1.21-.19,1.1-.2,1.88-.39,3.75-.75c2.51-.46,5-1,7.42-1.58l3.67-.79,3.63-.87c9.66-2.28,19-4.81,28.07-7.68s17.8-6,26.21-9.49A239.93,239.93,0,0,0,302,296.77c.17.62-3,2.73-6.14,4.6,6.31-2.88,15.14-5.43,13.2-7.93l-5.82,3.43c-5.93.12-.54-4.71,6.22-9.93s14.92-10.88,15-12.21c-2.2,4.07.24,4.34,4.37,3.31l-6.36-14.82c-8.39,1.7-24,8.8-15.36-3-3.92,2.23-8.56,5.71-6.83,7.22-6.36,2-8.77,1.65-3.43-3.07-21.87,10.77-12.64,10.52-33.06,18.81-.49-1.41,3.41-3.62,4.85-6.11a155.24,155.24,0,0,1-14.94,10.28,124.12,124.12,0,0,1-21.4,9.82c.68-1.27-1.8-1.49,3.39-3.7a183.88,183.88,0,0,0-17.3,8.87c-5.4,3.1-10.5,6.37-15.52,9.73s-10,6.87-15.05,10.42-10.3,7.32-15.91,11.21l7.81,12.83a157.12,157.12,0,0,1,14.6-6.76c-3.12,5.19-.24,4.32,3.92,2.74s9.65-3.86,11.67-1.73c5.32-3.12,10.67-6.23,16.09-9.23-2.63.18-5.27.36-7.9.58,14.8-6.65,26.59-15.94,40.38-19.28-3.5,2.16-7,4.36-10.42,6.57q13.93-6.18,28.14-11.79-8.49,1.89-17,4c7.23-4.27,6.22-5.77,6-7s.35-2.17,10.94-5.09c-2.29,1.14,3.08-.79,9.85-2.51l-3.35-6.72c-4.57,2.63-9.92,5.4-13.79,6.27,0,0,.05,0,0,0-5.76,6-11.73,12.24-22.73,17.7-3.62.22-1.23-6.58-3.6-6.46-2.08,4.16-10,9.63-18.2,15.2s-16.65,11.22-19.7,16c2.29-2.77.91-5.36-.35-5.3l-3.79,6.75c-7.16,2.9-8.42,2.95-8.56.31-10,5.56-7.56,6.14-5.69,6.77s3.11,1.28-9.41,6.84c1.69-1.35.53-1.31,4.07-4.07-9.35,4.78-18.09,10-26.58,15.27l-12.47,7.69,12.79,5.81a19.14,19.14,0,0,0,4.88,1.52,19.86,19.86,0,0,0,4.7.22,29.19,29.19,0,0,0,7.77-1.7c2.24-.81,4.3-1.73,6.15-2.61l5.4-2.56c7.21-3.34,14.38-6.55,21.73-9.3,4.59,1-.31,3.63-5.15,6.1s-9.65,4.7-4.75,5.12c16.61-7.95,33.09-17.66,49.25-27.45s32-19.62,47.74-27.86c-2,.91-4,1.84-6.05,2.73.1-2.33,1.69-4.1,4.24-5.64a62,62,0,0,1,10-4.26c7.85-2.83,17.36-6.2,24-12.51-3.42,2.8-2.59,6.78-2,5.41,5.17-2.8,10.22-5.93,15.52-9.43l-11.8-18.81c-15.87,10.35-32.65,23.47-55.22,39.67l2.77-4.12c-13,5.92-32.36,18.79-45.9,26.08-2.8,4.13-10.43,8.47-4.33,8.18-23.17,7.5-41.52,20.69-59.14,33.72L146,395.23l21.56,1.51a73.91,73.91,0,0,0,18.27-1,146.91,146.91,0,0,0,16.72-4.07c5.37-1.58,10.6-3.26,15.81-4.75,2.62-.73,5.21-1.46,7.86-2.06s5.3-1.22,8-1.69a39.23,39.23,0,0,0-6.62,3.73c-1.61,1.12-2.15,1.81-.24,1.05,11.13-5.15,22-10.83,32.56-16.92-4.15-1.81-5.21.33-13.25,1.18,3.28-3.81,11.62-9.71,19.38-14-6.52,4.85-5.91,6-2.66,5.85a35.94,35.94,0,0,0,6.17-1.12c2.3-.55,4.64-1.21,6.41-1.68-1.56-.33,0-2.56-1.09-3.2,4.88-1,7.24-2.08,8.46-3.14s1.26-2.18,1.44-3.47a7,7,0,0,1,2.27-4.49A22.24,22.24,0,0,1,291,344a73.51,73.51,0,0,1,7-3.62l-.11,2.27c7.09-5.8,12.63-12.45,20.4-18.16L317,322.9c-.42.27-.88.58-1.36.88-2.23-.31-1.67-1.48-.15-3l4.31,5.84c-2.18,2.43-6.72,5.82-5.88,7.67a54.63,54.63,0,0,0,6.9-6.35l-6.29-8.52c-8.07,8-14.73,17.49-24.95,20.85,4.37-4.45,11.58-9.56,15.95-14-14.35,4.37-15,6.29-24.1,11.79l.92-.52-21.23,12.37,5.83-2.55c-8.76,19-29,22.79-45,42.44,15.62-18.95,1-5.33-.09-10.08-5.82,2.55-14.36,6.85-12.9,4.25a25.36,25.36,0,0,1-2.18,2.52L195.51,398l9.6,7.61a37.3,37.3,0,0,0,3.16,2.38,26.34,26.34,0,0,0,3.39,1.88c.57.27,1.15.52,1.73.77s1.15.39,1.72.58a28.82,28.82,0,0,0,3.38.85,33.63,33.63,0,0,0,11.84.05,32.86,32.86,0,0,0,10.08-3.38,35.06,35.06,0,0,0,8.44-6.45c1.31,1,11.08-5.4,10.41-.95,12.86-7.75-4.31-.69-4-2.9,14.17-11.42,36.91-16.48,58.81-27.85L299.4,361.3h.12s.14,0,.05,0h-.24l-.19,0-.41-.08a5.43,5.43,0,0,1-.61-.16l-.75-.25-.16-.06h0a4.33,4.33,0,0,1-.77,1.78,32.34,32.34,0,0,1-2.46,3.27l-.79.95-1,1.07c-.63.73-1.25,1.47-1.87,2.22-20.5,20.18-21.52,27.35-40.64,45.95-8.45,3.82,2.36-8.76,2.36-8.76a128.44,128.44,0,0,0-14.94,10.17L211,438.14,243,428a193.35,193.35,0,0,0,19.45-7.56c-2.26,2,.77,2.22,5.17,2.63A19.56,19.56,0,0,0,276,418c1.89-1.58,4.3-3,11.5-3.8-2,2.21-4.32,5.54-8.89,8.51,11.87-4.71,23.4-10.47,36-14.7,4,1.7-6.92,5.53-11,8.28,9.82-3.26,23.89-7.18,32.76-10.75l-6.76-14.41c-2.78,3.25-4.63,6-4.95,7.8l7.63-4.49,3.25,6.92-.88.05a5.57,5.57,0,0,1,.85-.16l-3.15-6.71c-2.76,2-3.34-.25-2.19-2.71l6,12.84a7.28,7.28,0,0,1-1.88,1.1c-11.81,5.63-18.23,2.49-19.29,1.21l9-3c-5.64-3.17-14.93-.78-25,3.11s-20.85,9.25-30,11.68c1.95-2.75,3.93-5.46,5.93-8.19q-8.76,5.14-17.34,10.48c-4.44-.33-8.23-2.81.55-6.49-11.41.88-11.52,4.14-17.8,5.52l2,3.66a30.05,30.05,0,0,1,4.86-2.48c1.35-.4,1.08.2.3,1.15l9.25-9.86c-1.21,2.67,4.51,2-2.46,6.49,21-12.31,27.23-28,37.25-30l-1.33,1.56c12.32-11.31,12.23-12.71,11.07-13.77-.58-.53-1.42-1-1.12-2.53a13.49,13.49,0,0,1,1.33-3.34,32.65,32.65,0,0,0,2.58-5.93,10.18,10.18,0,0,0,3.35-1.79,9,9,0,0,0,2.57-3.51l.29-.69-2.15-.28-11.5-1.44-.87,5.56c-3.15,1.4-9.39,4.15-9.09,1.95-10,8.55,2.85.8-2.47,6.78-16.68,3.71-40,22.26-46.58,17.41-3.75,5.78,15.37-4.71.65,5.39-3.22-1.88-6.37-.71-10.18.79a24.34,24.34,0,0,1-6.2,1.81,9.38,9.38,0,0,1-3.3-.18,7.43,7.43,0,0,1-3-1.64l-.3,3.32a35.52,35.52,0,0,1,8.07-4.64c-.74,3-4.42,6.2-5.88,7.75l.82-9.09c.36.11.57.16.69.05a1,1,0,0,0,.07-.79l-1,10.69a38.17,38.17,0,0,0,5.32-1.88c3.51-10.87,25-15.78,34.63-24.21-2.65-4.8,21.38-17.86,37.85-31.7,0,1.36,12.33-6.31,26-14.83l-9-12.14a269.61,269.61,0,0,1-25.49,15.55l0-1.08c0,1.66-1.16,3.54-3,5.57a50.92,50.92,0,0,1-7.5,6.29c-6,4.33-13.65,8.64-19.93,12.56-1-3.21.74-5.54,6.92-10.65l-6,3.31-6.05,3.2c-2.08,3-5.47,5.85-13.32,10.2.48-1.73.94-3.44,1.38-5.19-8.16,4-16.08,8.75-25,13.11a97.08,97.08,0,0,1-13.92,5.76A52.25,52.25,0,0,1,185.66,379c-.18,1,.87,2,2.28,3a45.28,45.28,0,0,1,4.29,3.07c1.09,1.07,1.5,2.23,0,3.59a11.79,11.79,0,0,1-3.79,2.14,36.06,36.06,0,0,1-7.68,1.91,4.75,4.75,0,0,1-.63-3.68c.43-1.27,1.77-2.4,4.91-3.16-1,.26-2.86.86-5,1.23a18.5,18.5,0,0,1-3.36.31c-.57,0-1.15,0-1.71-.08a14.1,14.1,0,0,1-1.62-.35,57.05,57.05,0,0,0,9.55-3.57c-5.09-.38-6.31.15-7.43,1.05a6.07,6.07,0,0,1-1.94,1.15,5.94,5.94,0,0,1-1.66.28,16.59,16.59,0,0,1-2.54-.23.22.22,0,0,0-.09-.24l1.21,5.86c1.45,2.27,6.42-1.68,6.58.91a32.8,32.8,0,0,1-4.54,2.39l-2.67-13a19.73,19.73,0,0,0,2.66.47,7.29,7.29,0,0,0,2.51-.27c-.83-.11-1.68-.22-2.52-.36l-2.54-.56,2.95,14.34c7.47-3.7,15.41-6.86,19.08-7-1.62-1-2.1-3.39,3.86-7.53,15.82-10,7.33-.35,17.42-4.8,2.78-4.14,14.06-8.62,12-12.55,4.67-2.86,6.62-1.64,9-1.73,7.22-6.77,38.22-24.31,26.45-22.57l-2.28,1.05c.35-.33.81-.62,1.25-1l-.07,0,.07,0c22.42-18.58,51.46-30.3,75.91-45.89l-7.12-11.35c-2.49,1.62-4.91,3.26-7.27,4.95l-.74-1.28c-14.94,11.4-35.11,22.32-45.27,31.58-4.85,2.71-12.77,3.92-11.53,1.24-6,3.9-9.19,6.37-13.3,8.82a76.94,76.94,0,0,1-7.33,3.78c-3,1.35-6.7,2.83-11.58,4.62,11.63-8.82-5.42.22,12.24-8.38-8.52,3.69-14,5.42-19.35,7.78a77.8,77.8,0,0,0-8.3,4.33c-3,1.82-6.32,4.1-10.39,7.12,2.25-3.17-1.41-2.75-6.56-1a82.06,82.06,0,0,0-8.33,3.36,71.26,71.26,0,0,0-7.3,3.75c4.31-.93,8.63-1.86,12.93-2.86a224.33,224.33,0,0,1-25,11l2.38-6.47c-1,.25-1.91.5-2.85.77l-2.7.79a36.34,36.34,0,0,1-3.71.89l-.57.08c-.12,0-.31,0-.37,0h-.17s0,0,0,.08c0,.28,0,.44,0,.65,0,.41,0,.81,0,1.23a10.2,10.2,0,0,1-.5,3.94l3.33,24.11c12.15-7.37,22.35-16,32.46-23.51s20.15-13.76,32.15-16.48c3.4-4.2-1.35-1.92-6.28.3s-10,4.44-7.2.34c15.41-8.64,34.81-12.58,39.51-15.61,10.38-5.16,14.28-9.64,17.89-14.21s6.94-9.28,16.12-15.14l64.31-41.09-73.9,21.81c-.85.25-2.1.61-3.43.95,1.84.32,3.86,1.35,3.24,3.28s-3.89,4.69-12.51,8.66a50.12,50.12,0,0,1-10.54,2.32,12.45,12.45,0,0,1-6-.58c-2.42-1.16-1.51-3.76,3.53-6.41,4-1.66,6.1-1.83,6.14-1.2,5.19-2.6,12.12-5.81,4.78-5.28L265,287.38c-4.49.65-12.5,3.19-18.81,5.08s-11,3-8.8.59c-11.95,6.75-4.27,4.86,5.38,2A175.65,175.65,0,0,0,215,305.36c-8.27,3.77-16.5,7.76-27.52,12.22,3.82-.8,7.85-.39,4.47,1.21-16.64,6.91-19.18,9.52-20.68,11.7l11.07,18.18a15.44,15.44,0,0,1,2.19-3.7c1.27-1.57,3.54-3.61,8-6.62,6.15-2.15,6-.11,6.58.69.29.4.76.53,2.3-.27s4.12-2.51,8.8-5.66c6.5-2.4,7.71-1.6,6.73.14s-4,4.58-6,6.49c8-6.31,16.93-9.93,25.08-12.46s15.64-4,21.24-6q-4.77,2.78-9.47,5.59a110.12,110.12,0,0,1,15.66-7.5l-7.17-.87c6.19-1.92,11.31-4,11.75-2.59,5.34-4.71-7-3.52,4.14-11.54,8.77-1.64,23.89-11.89,28.47-8.66-26,8.93,4.61,3.24-16.63,12.76a76.88,76.88,0,0,1,15.33-6.18c1.12.11-.48,1.25-2,2.18,25.78-6,9.36-9.48,34.05-19.6l-12.08-28.15-.36.16c.06-.12.11-.24.15-.34l0-.09,0,0h0L331.5,285.2h0l0,.15a1.2,1.2,0,0,0,0,.53,1.14,1.14,0,0,0,.64.73h0c-27.15-63.28-7.52-17.54-13.58-31.67h-.06l-.07,0-.15,0a1.68,1.68,0,0,0-.32-.09,5.4,5.4,0,0,0-.75-.11,10.71,10.71,0,0,0-1.85.05,21.72,21.72,0,0,0-8,2.45c10-4.41,6.58,1.93-1.74,7.87-16.68,5.09-16.6,8.92-25,12.17,3.29-1,6.58-2.05,9.87-3.08-2.18,3.79-10.26,6.93-21.15,12-1.69-1.56,9.61-5.33,5.3-4.61-5.32,4.65-12.82,6.2-20.92,7.56s-16.81,2.4-25.14,6.26c-4.29.17-4.78-1-5.14-2.12s-.58-2.16-4.22-1.95c-2,.86-3.93,1.54-5.66,2.09a48.68,48.68,0,0,1-4.82,1.12,39.92,39.92,0,0,1-8,.55l-1.85,0c-.29,0-.64,0-.89,0l-.65-.08a5.75,5.75,0,0,1-1.79-.46s-.16-.07-.15-.12v0h0l0,.43c-.06.58-.08,1-.14,1.57a30.6,30.6,0,0,1-1,5.3,5.9,5.9,0,0,1-.3,1l-.32.84c-.09.23-.27.55-.35.72a5.65,5.65,0,0,1-.29.53c-.33.56-.57.67-.31.48l10.6,14.51a4.32,4.32,0,0,1,.46-1.55c-2.12-.35-2.94-.24-3.35-.84-.2-.32-.25-.82.06-1.86a16.69,16.69,0,0,1,3.24-5.27,27.18,27.18,0,0,0-3.69,3.67,10.06,10.06,0,0,0-1.77,3l-5.55-11.67c-.2.13-.1.15.23-.37a11.08,11.08,0,0,0,1.3-3c.09-.33.26-.83.35-1.23,0-.21.09-.43.13-.64s.06-.24.08-.36l0-.09h0l0,0a.5.5,0,0,1,.13,0c.18-.05.5-.09.93-.17s.95-.17,1.51-.28l2.08-.48,5-1.2-4.92,2c-.9.36-1.45.63-2.07.9l-1.6.72c-1,.44-1.63.71-1.79,1.09,0,0,0,0,0,0l-.08.25c-.06.17-.12.34-.19.51-.15.35-.2.55-.33.82l-.33.66a5.5,5.5,0,0,1-.3.5c-.33.52-.43.5-.23.37l2.61,10,.13-.83-.4.68-2.34-9.87c-.4.31.14,0,.8-1.4l.13-.28a.87.87,0,0,0,.07-.19l0,0,.15,0,.25,0,.36,0a28.43,28.43,0,0,0,4.92-1c2.32-.61,4.51-1.17,6.49-1.61a46,46,0,0,1,5.27-1c-5,2.5-7.28,3.28-7.62,3.88s1.26.85,4,1.91a28.77,28.77,0,0,0-5.84-.53c-.48,0-1,0-1.43,0l-.71.05-.62,0-2.29.13c-1.41.09-2.64.13-3.36.12a2.89,2.89,0,0,0-.75.07,3.35,3.35,0,0,1-.38.18l.58,8.23a16.8,16.8,0,0,1,5-7.22,33.39,33.39,0,0,1,10-5.77l4.36,7.74c24.16-10.91,36.65-29.09,66.46-45.68l-10,4.64c1.93-5.43,17.39-11.81,25.87-19,.63,2.57,5.25,1,9.62-.19l-14.33-27c-.9.1-1.76.18-2.57.22.72.91-5.19,3.35-11.24,6.56a66.42,66.42,0,0,0-8.44,5.17c-2.31,1.82-3.89,3.65-3.95,5.32-2.59.54-5.21,1-7.8,1.62l-7.78,1.72a81.1,81.1,0,0,0-8.46,4.24,68.41,68.41,0,0,0-6.52,4.24,93.2,93.2,0,0,0-9.66,8.5c-5.77,5.7-11.32,11.35-23,17.62,2.64-3.41,1.1-4,.66-5.2s.24-2.85,7.46-8.29c-7.79,4.38-15,8-14.05,9.84-2.73.5-7.51,4.54-12.67,8.64s-10.63,8.36-14.83,9.31c-2.5,3.08-1.92,6.34-10.47,11.39-1.24.06-.74-1.27-.74-1.27.73,1.26-12.11,9.95-3,8.11-10,2.37-21,8.31-32.11,15.27l10.49,12.38A131.35,131.35,0,0,1,156,315.09a93.68,93.68,0,0,1,13.49-7.38A52.18,52.18,0,0,1,182,303.78c8.1-4.9,17.41-10.14,26.44-15.21s18-9.94,25.68-14c-.59,1.3.62,1.34-2.45,2.57,22.67-8.49,9.33-14.31,35.12-24C281.42,251,255,262,263.6,259.67c5.36,4.83,17.09-4.78,30.11-12.27L283,226.05a80.72,80.72,0,0,1-8.57,4.2,37.47,37.47,0,0,1-8.74,2.27l3.69-2.32a31.58,31.58,0,0,0-5.22,1.52,53.75,53.75,0,0,0-5.49,2.34c-3.7,1.83-7.71,4.05-11.88,6.49-8.46,4.84-17.95,10.38-28.85,14.69,0,0,.71-1.25-.45-1.41-6.4,5.48-16.37,11.74-26.86,18.74s-21.38,14.94-29.74,22.8c3.22-7.34,7.08-8.06,1.18-8.39-4,3.49-2.42,4.21-1.82,5.8s.2,4-6.86,11.26c-2.17,1.17-5.06,3.13-8.09,5.13l-36,23.77,43-15.54c5.94-2.16,12.28-4.24,14.8-2.72l-11.64,7.76L73.18,377.15l67.64-71.94,3.76-4a20,20,0,0,0-5.16,2.75L57.8,362.83,156.36,324c4.46-1.76,8.71-5.06,12.75-8.41s7.69-6.94,11.39-9l.28,2.64c1.5-1.07,2.86-2.12,4.11-3.15s2.43-2,3.53-2.94c2.18-1.88,4.06-3.6,5.74-5.23,3.32-3.29,5.82-6.2,8.41-9.1s5.18-5.86,8.71-9.24a177.21,177.21,0,0,1,14-12l-3.6.61c9.56-15.07,13.11-6.29,23.5-20.18l7.66,1.44c3.89-4,10.56-11.19,18.22-18.87a305.92,305.92,0,0,1,24.05-22.13,73.16,73.16,0,0,1-6.62,8.43c-2.69,3-5.69,6.34-8.84,9.6l-9.37,9.8c-3,3.16-5.9,6.23-8.3,9,4.3-3.42,11.53-9.2,18.05-14.82,3.27-2.78,6.36-5.53,8.81-8s4.3-4.41,5-5.84c-1.6,1.52-3.31,3.36-5.09,5.09a21.9,21.9,0,0,1-5.66,4.28c7.82-11.75,20.72-24.21,39.2-35.7.88,3.66,6.11,2.43,13.35-1,.91-.42,1.84-.89,2.81-1.37l3-1.43c2.07-1,4.24-2.1,6.47-3.24l3.38-1.75.21-.11.08,0,.15-.06.33-.11a3.68,3.68,0,0,1,.56-.15c.09,0,.11,0,.16,0h0l0-.27-.14-1.18a15.42,15.42,0,0,1,.07-4.28,5,5,0,0,1,.71-2.15c.16-.22,0,.1-.62.32l-5.62-8.79c-7,9-16,16.07-22.32,17.21a154.17,154.17,0,0,1-20.82,18.83c-7.69,6-15.68,11.74-23.9,17.51S263.52,229.91,254.92,236l-12.78,9.22C238,248.23,234,251,230,253.4a34.58,34.58,0,0,1,4.28.44c.88.19,1.26.46,1.25.81,0,.71-1.55,1.74-3.39,2.85a31.61,31.61,0,0,0-5.32,3.58c-1.32,1.27-1.92,2.8-.48,4.68-1.68.82-3.18,1.44-4.11,1.83l8.64,12.62c4.21-5.49,6.09-7.47,6.93-7.75l24.54-21.17c6.88-4.15-4.81,9-2.61,9.58,13.15-15,10.42-7.82,16.94-12.22l36.87-24.93L259.7,210.66c-.79-.2-1.74-.39-2.86-.57a34.85,34.85,0,0,0-3.92-.44c1.15.77,1,1.48-.1,2.11a27.67,27.67,0,0,1-5.81,1.81c-5.33,1.22-13.09,2.87-21,5.21a91.52,91.52,0,0,1,23.78-1.25c-10.14,2.24-16.59,4.58-21.91,6.06S218.57,226,214.51,227a52,52,0,0,0-12.77,4.64,54.81,54.81,0,0,0-7.54,4.84,84.6,84.6,0,0,0-8.46,7.49c2.25-2.89,4.63-5.83,7.12-8.77-2.46,2.1-5.68,4.69-9.22,7.55l-11.33,9.1c-3.91,3.1-7.88,6.17-11.7,9s-7.49,5.37-10.87,7.6l27,23.39c.5-3,1.08-5.89,1.6-8.63.29-1.35.51-2.68.72-3.95s.32-2.48.42-3.61c1.14-.78,2.62-1.51,3.55-1.32a.88.88,0,0,1,.73,1,6.79,6.79,0,0,1-.89,2.88A200.35,200.35,0,0,1,199.22,257c3.22-3.69,6.64-7.44,10.21-11.21s7.14-7.48,10.76-11.1c14.53-14.44,29.62-27.17,43.3-34.3l-1.09,3.56c5.52-4.82,7.88-10.9,16.72-14.38.14,1-1.13,3.54,1.73,1.69,1.11-1.18,3.6-3.79,6.92-6.89L271.4,154.87c-2.68,1.69-5.81,3.53-9,5.17a57,57,0,0,1-9.23,4l6.8-5.89c-18.82,6.91-31.9,15.28-43.64,24s-22.21,17.8-35.85,27.2c-.85-1.41-3.23-1.57-6.52-.84a65.55,65.55,0,0,0-12,4.41c-9,4.13-19.16,10.25-25.85,14.41l-.11-1.07c-3.63,2.5-7.07,5.08-10.34,7.52s-6.25,4.94-9,7.23l33.41,23.45a10.09,10.09,0,0,1,1.81-4,52.18,52.18,0,0,1,5.64-6.71l16-16.28c10.67-10.89,21.43-21.75,34-33.05,13.75-5.79,34.12-21,56-36.61l-25.88-25.22-4.45,5.79c-.75,1-1.46,2-2.25,2.9L228.57,154c-1.64,1.84-3.21,3.73-4.91,5.51l-5.21,5.23c-1.69,1.75-3.56,3.35-5.37,4.95s-3.58,3.19-5.44,4.66-3.72,2.89-5.55,4.27c-.91.68-1.8,1.37-2.72,2l-2.79,1.88c5.46-2.94,2.57,4.57-2.59,9.64-8.2,4.82-18.38,19.71-20.78,13.9l2.85-1.94a18.58,18.58,0,0,0-8,1.88,68.13,68.13,0,0,0-9.44,5.29c-3.31,2.14-6.75,4.6-10.2,7.12l-5.11,3.75c-1.7,1.26-3.37,2.49-5,3.66l2.55,8c-14.45,5.51-29.78,16.38-43.58,29.75l21.89,26c13.2-10.48,25.27-22.34,35.68-32.41s19.27-18.39,26.83-21.61c1.39-2.25,3-4.48,4.64-6.78s3.38-4.62,5.1-6.93a122.82,122.82,0,0,0,9.15-14l2.95,3.11c5.61-6.35,10.19-11.93,14.55-17.44,2.18-2.76,4.23-5.55,6.36-8.39s4.16-5.86,6.36-9L335.52,25.51,200.22,150.07c-6.17,5.68-13.71,13-23.59,22.42l3-6.81c-7,6.22-9.41,12.36-11.71,18.46s-4.52,12.14-11.21,17.65q-4-.9-8-1.84a181.41,181.41,0,0,1-18.58,12.52c-6.4,3.75-12.93,7.15-19.47,10.31l23.44,27.3c4-4.74,9.61-9.33,16-14.52,3.18-2.59,6.65-5.42,10-8.38s6.54-6,9.63-9.26c.12,1.08.41,3.13-3.81,6.56,12.8-9.23,51.66-32.77,41.89-36.37,3.68,4.33,28.15-20.08,41.24-32.84l.21,5c4.1-6,6.26-9.6,9-13.12l-15.11-18.43c-2.6,4.32-6,8.55-14.26,16.86-4.14,2.88-5.5.37.2-3.21-7,4.68-8.81,7.53-11,10.69s-4.69,6.61-13.19,12.23l4.08-6.88c-13.38,10.75-11.45,10.93-16.85,19.33-3.68,4-10.27,8.94-16.45,12.54a45.24,45.24,0,0,1-8.42,3.92c-2.41.77-4.28.91-5.26.44-.24,1.49-1.73,4.1-4.35,6.48A18.37,18.37,0,0,1,147.15,206c-.69-.6-.33-1.25.3-1.85a17,17,0,0,1,2.2-1.65,53.15,53.15,0,0,1-6.09.74c-.5.07-.82,0-1.22,0a8.67,8.67,0,0,1-1.14,0c-.39,0-.77,0-1.15,0s-.76-.09-1.14-.12c-.76,0-1.5-.21-2.24-.28s-1.46-.3-2.17-.45l-.51-.14-.38-.08a4.62,4.62,0,0,1-.81-.21c-.56-.17-1.12-.33-1.65-.55a15.17,15.17,0,0,1-5.79-3.7,9.06,9.06,0,0,1-2.56-6.22,8.85,8.85,0,0,1,2.74-6.29,4.29,4.29,0,0,0,3.17-.45,11.48,11.48,0,0,0-2.08,6.46,9.44,9.44,0,0,0,1.4,4.85,13.06,13.06,0,0,0,2.58,3c1.67,1.39,2.75,1.88,2.38,1.86a4.28,4.28,0,0,0,.23-2.64,7.6,7.6,0,0,1-.09-2.5,2.88,2.88,0,0,1,1.31-1.89c.73-.53,1.86-.94,3-1.81a4.06,4.06,0,0,1-2.46.44,4.55,4.55,0,0,1-3-1.68,5,5,0,0,1-1.1-3,7,7,0,0,1,.79-3.52,19.92,19.92,0,0,1,1.95-2.71c.4-.46.79-.91,1.21-1.35L136.1,179a37.87,37.87,0,0,1,6.13-4.57c.43-.1.86-.19,1.29-.25a5.91,5.91,0,0,1,1.33-.06l-.62.74-.56.69c.79-.48,1.7-1.09,2.48-1.66s1.56-1.19,2.28-1.81a48.31,48.31,0,0,0,4-3.83,143.6,143.6,0,0,0,12.66-8c3.6,1.28,18-11,25.54-16-3-3,7.2-9.2-4-5.78,1.36-.57-1.13,1.4-6,5a28.21,28.21,0,0,0-2.92,2.62,5.13,5.13,0,0,1,.29-.66l-18.3,13.63c4.58-6,9.66-12,19.29-16a140.77,140.77,0,0,1,6.65-12.9c6.86-1.15,15.75-4.3,23.54-6.81s14.45-4.4,16.77-3.63a240.6,240.6,0,0,1,22.56-13.68l-17.9-24.78c-6.74,7.79-14.12,15.17-20.75,21.87-1.68,1.65-3.22,3.38-4.79,4.93s-3,3.14-4.39,4.69-2.68,3-3.83,4.44a47.53,47.53,0,0,0-3.08,4.3c-6.14,4.92-8.8,2.74-11.93,3,.86-.72,1.82-1.37,2.75-2.08l2.72-2a16.77,16.77,0,0,0,3.94-3.62c-1.48,1.22-3.2,2.49-5.07,3.83-.94.66-1.89,1.38-2.91,2l-3.14,2c-2.13,1.34-4.32,2.71-6.58,4l-3.35,1.91c-1.1.64-2.2,1.27-3.3,1.84-2.18,1.17-4.28,2.34-6.2,3.48s-3.75,2.09-5.29,3.1c-3,2.06-5.18,3.78-5.58,5.41a37.8,37.8,0,0,1-5.22.92c-1.14.05-1.73-.09-2-.31-.47-.46.45-1.31,1.18-2,1.41-1.48,2.21-1.94-10.36,2.4,1-.84,2-1.75,2.94-2.66-10.37,1.34-19.63,2.95-28.48,4.76l14.92,21.89c.78-1.35,1.63-2.71,2.6-4.09s2.1-2.74,3.3-4.14a98.35,98.35,0,0,1,8.58-8.42c3.21-2.83,6.73-5.7,10.37-8.67s7.25-5.9,11-8.82c15-11.7,31.69-23,54.88-31.72-4,1.59-5.93,2.41-7.15,2.06,13-6.64,25.74-13.92,38.45-21.58L235,68.17c-21.71,13.71-43.46,28-65.67,41.22s-44.89,25.43-68.18,34.91l13.37,13a28.93,28.93,0,0,1,2.78-3.61,34.72,34.72,0,0,1,3.46-3.26c2.92-2.6,5.48-4.66,7.58-6.56a51.83,51.83,0,0,0,5.19-5.29c2.9-3.42,4.84-6.77,8.8-11.37l6.08,1.15,13.23-16.25C182.5,92,208.32,91.49,233.34,64l-5.59.34c2.73-1.84,6.13-4.4,9.74-7.16l-6.74-11.28c-6.08,3-12.51,6.58-17.33,9.09s-8.11,3.87-8,2.31c-.92,1.18-2.18,4.92-7.45,6.29l-1.59-1.8q-13,10.41-24.75,21.91a50.78,50.78,0,0,1-6.21,3.69,10,10,0,0,1-3.52,1.18c-1.7.13-2.32-.83-3.19-1.53s-2-1.16-4.78.1-7.17,4.16-14.21,10.54c-1.23,1.28-2.51,2.76-3.8,4.37s-2.6,3.26-4,5.25a52.9,52.9,0,0,0-7.36,13.59,23,23,0,0,0-1.14,12.13c.67,2.6,1.34,3.22,1.78,1.76a17.32,17.32,0,0,1,1.11-5.51,18.11,18.11,0,0,1,2.77-5c2.17-2.78,4.46-4.08,5.51-3.56-2.29,3.72-4.12,8.07-4.19,12.47.83.45,1.64,1,2.48,1.49a27.53,27.53,0,0,0,2.55,1.36c1.67.81,3.29,1.43,4.94,1a3.78,3.78,0,0,0,.62-.21,3,3,0,0,1,.61-.25,9.61,9.61,0,0,0,1.17-.48c.79-.37,1.58-.84,2.49-1.34.43-.25.92-.52,1.39-.74.25-.1.45-.19.74-.33l.39-.2.45-.25c.27-.16.66-.39,1-.6s.75-.48,1.2-.78l3.11-2.13c.68-1.23,1.5-2.54,2.5-4l2.89-4.26c2-2.79,4-5.62,6-8.37,2.36-.61,4.75-1.17,7.13-1.69-4.28,3.66-8.38,7.51-12.45,11.4a27.68,27.68,0,0,0,5.75-3.46,24.64,24.64,0,0,0,4.08-3.92,47.65,47.65,0,0,0,3.12-4.25c1-1.47,1.89-2.94,2.92-4.38,2.39.37,5.35-.43,8.89-2.31,3.8-5.73,7.81-11.44,12.09-17,1.76.45.68,2.83.66,4.3s1,2,6.85-1c3-3.8.33-3.89-1.67-4.26s-3.33-1.06,2.68-6.1c5-1.25,7.2-.87,9.21-1.24s3.8-1.47,8.09-5.43c2.27.81.7,3-2.76,5.85,5.37-4.9,14.67-9.54,20.8-13.62l-16-26.72c-2.27,2.23-4,4.3-4.6,6.11-10.81,3.1-28.11,22-31.2,16-1.73,3.25-11.9,15.23-19.55,21.21,9.58-16.89-29.51,21.19-30.78,11.57-2.79,6-10.17,12.63-18.94,19.66-4.38,3.54-9.67,7.49-15,12.63a69.3,69.3,0,0,0-7.59,8.71,50,50,0,0,0-6,10.68L71.28,194.33l41.87-26.56c2.64-1.68,5.09-3.35,7.35-5-.91,1.1-2.67,3.31-4.68,3.93,12-5.53,16.4-5.46,24.55-8.26-.63-3,3.43-7.22,8.62-11.77s11.5-9.47,15.43-13.76c16.87-3-5.19,10.83,1.87,13.1-1.51-1.87,4.07-6.35,9.14-10.48s9.66-7.91,6.29-8.26c12.47-3.14,10.07-3.87,18.05-2.88-1.86-7.44,9.32-6.94,15.78-16.13,8.59-3.1,10.48-2.25,12.17-2.13s3.2-.47,11-6.66c4.57-1.53,3.49.58,1.26,3.07A65.3,65.3,0,0,1,234.32,107.87ZM122.41,157l0-.07c1.67-1.43,3.22-2.67,4.56-3.74l3.27-2.57L127.25,153C126,154,124.41,155.25,122.41,157Zm-18.5,45.36a31.11,31.11,0,0,1-1.16-4.14,19.25,19.25,0,0,1-.37-2.44c0-.43-.09-.87-.14-1.33,0-.23,0-.46-.09-.7s0-.47,0-.72c0-1,0-2.07.08-3.2a33.07,33.07,0,0,1,.41-3.55,31.57,31.57,0,0,1,.87-3.75c.2-.63.39-1.26.59-1.9s.5-1.26.76-1.89c1.07-.67,1.73-.34,1.89.69a7,7,0,0,1-.14,2.09,28.48,28.48,0,0,1-.73,3.19c-.11-.94-.56-.36-1.19,1.19-.15.39-.33.84-.49,1.35s-.27,1.06-.4,1.66a31.19,31.19,0,0,0-.62,4.05c-.06,1.52-.06,3.17,0,4.78A37.22,37.22,0,0,0,103.91,202.36Zm71-48c-4.56,4-6.7,4.59-7.88,4.39,2.28-1.77,4.91-3.86,8.31-6.67,0-.23.24-.59.28-.84A6.14,6.14,0,0,1,174.93,154.38Z"/><path class="cls-2" d="M180.6,143.53a24.92,24.92,0,0,1,1.88-1.68c-1.23.41-2.39.81-3.52,1.31-.34.79-.7,1.59-1,2.33Z"/><path class="cls-2" d="M260.77,339.05l.75-.35a6,6,0,0,1-1.78.4A5.7,5.7,0,0,1,260.77,339.05Z"/><polygon class="cls-2" points="149.05 214.71 149.86 215.41 151.45 212.41 149.05 214.71"/><path class="cls-2" d="M276,361.25a6.25,6.25,0,0,0,3-.5C278.78,360.57,277.51,360.86,276,361.25Z"/><path class="cls-2" d="M281.46,338l-11.58,6.33C275,341.79,278.62,339.74,281.46,338Z"/><path class="cls-2" d="M222,377.42a4.29,4.29,0,0,0-.09,2.28.38.38,0,0,1,.13-.06Z"/><path class="cls-2" d="M295.9,301.37a25.73,25.73,0,0,0-2.52,1.26C287.57,305.88,291.64,303.9,295.9,301.37Z"/><path class="cls-2" d="M268.94,296.59c2.54-2.62,5-5.21,7.83-7.7C271.66,292,267.75,294.5,268.94,296.59Z"/><path class="cls-2" d="M187.82,316.7s0,0,0-.08l-2,1.21Z"/><path class="cls-2" d="M276.61,305.06a58.86,58.86,0,0,0,11-3.31l-7.69-15.45c-1.15.88-2.16,1.73-3.14,2.59l3.49-2.09,7.15,14.37A59.74,59.74,0,0,0,276.61,305.06Z"/><path class="cls-2" d="M333.53,411.17l3.34-.5a.71.71,0,0,1,.27-.74Z"/><path class="cls-2" d="M337.14,409.93l.11,0-10.42-22.2-2.57,2.7c1.31-1.06,2.43-2,2.59-2.67l10.39,22.13A.17.17,0,0,0,337.14,409.93Z"/><path class="cls-2" d="M318.69,396.26l5.57-5.87C322.09,392.13,319.35,394.18,318.69,396.26Z"/><path class="cls-2" d="M235.05,412.59l-.12-1.87A2,2,0,0,0,235.05,412.59Z"/><path class="cls-2" d="M257.08,394.22c-5.54,4-15.4,8.25-22.23,15l.08,1.51C237,406.13,253.64,400.31,257.08,394.22Z"/><path class="cls-2" d="M255.31,378.66l22-9.69c-4.48.43-10.4.95-.81-4.3C247.27,373.92,283.74,365.12,255.31,378.66Z"/><path class="cls-2" d="M240.81,389.68c-10.11,8.06,1.49,1.85,1.46,3C248.1,386.74,249.51,385.29,240.81,389.68Z"/><path class="cls-2" d="M258.29,319.6l-.69-4C249.19,320.73,258.22,317,258.29,319.6Z"/><path class="cls-2" d="M173,382c2.1-.25,4.06-.59,5.87-.92l5-.88,2.87-5.08-6.39,3.39A64.73,64.73,0,0,1,173,382Z"/><path class="cls-2" d="M209.05,362.47l-3.49,2.73q6.84-4.9,13.63-9.86Z"/><path class="cls-2" d="M166.76,317.64c-1.63-.86-3.25-1.69-4.89-2.52-2.52,2.05-3.21,4.42-2.37,5.35S162.7,321,166.76,317.64Z"/><path class="cls-2" d="M224.22,271.89c4.83-.8,14.37-6.51,18.2-12.57C235.36,264.58,227.37,268.63,224.22,271.89Z"/><path class="cls-2" d="M121.27,241.14c1.81-2.1,3.64-4.2,5.47-6.22l-2.84,2.56-2.82,2.64-5.64,5.28Z"/></g></g><g id="Livello_1" data-name="Livello 1"><path d="M177.88,253.31c-7-3.13-13.89-6-10.69-12.47-4.63-5.93-8.73-10.18-11.64-15.13-3.63-6.19-6.42-12.9-9.3-19.5a21.27,21.27,0,0,1-1.95-8c-.13-9.91.71-19.88.08-29.75-1-15.92,5.16-29.25,14.21-41.33,6.19-8.25,12.79-16.9,21.08-22.68,9.63-6.71,18.16-16.75,31.89-16.11a22.86,22.86,0,0,0,11.24-2.22c12.69-6.64,23.86.07,35.56,3.09,14.32,3.69,25.52,13.28,33.45,24,11.93,16.19,20.61,34.92,20.88,56.08.14,10.94.44,21.88.15,32.8-.07,2.86-1.82,5.81-3.28,8.46-7.71,14-15.58,27.94-22.73,40.73,14.08,14.32,29.55,28.17,42.72,43.93,14.53,17.39,21.87,39,29.09,60.25,3,8.9,4.63,18.27,7.6,27.19,4.23,12.73-5.16,21.61-8.56,32.14-.44,1.36-4.17,2.45-6.31,2.35-17.64-.77-35.24-2.32-52.88-2.74-28-.66-56-1.53-83.91-.63-26.48.85-52.88,4.3-79.36,5.61-7,.35-14.08-3-21.15-4.6-2.53-.58-5.12-1.4-7.67-1.38-10.09.06-14.53-6.1-12.36-16,2-9.33,2-19.19,4.68-28.3,3.29-11.24,8.12-22.07,12.85-32.84,10.28-23.44,25.91-43.23,43.49-61.52C162.25,267.32,170.15,260.54,177.88,253.31ZM119.82,387H343.54c-2.82-6.2-5.18-9.55-5.9-13.23-6.25-31.88-20.58-59.21-43.2-82.73-16.83-17.49-25.36-20.45-50.52-20.92a65.87,65.87,0,0,0-21.9,3.07c-16.4,5.47-32.82,12-47.62,20.76-12.22,7.27-27.72,14.3-25.1,33.76.18,1.32-2.77,3-4.12,4.6A115.73,115.73,0,0,0,119.82,387ZM261.2,240c4.35-4.42,8-8.18,11.71-11.85.89-.88,2.62-1.2,3.08-2.19,6.8-14.63,14.83-28.93,10.58-46.22-2.61-10.63-4.81-21.4-6.56-32.21-2.2-13.5-14.42-25.75-27.6-27.11-7-.73-14.07-1.59-21-2.89-16.41-3.07-48.8,12.21-56.33,26.84-.61,1.2-1.51,2.4-1.63,3.67-2.18,22.21,1.84,43.45,9.75,64.19,5.2,13.63,15.61,20.92,28.61,25.77,2.35.88,4.1,3.35,4.86,4Z"/></g></svg>